<?xml version="1.0" encoding="UTF-8"?>
<svg id="Layer_2" data-name="Layer 2" xmlns="http://www.w3.org/2000/svg" viewBox="0 0 154.95 35.62">
  <defs>
    <style>
      .cls-1 {
        fill: #f4f4ef;
      }

      .cls-2 {
        fill: #f0c910;
      }
    </style>
  </defs>
  <g id="Layer_4" data-name="Layer 4">
    <g id="Boostle_Logo_-_White" data-name="Boostle Logo - White">
      <g id="Logo_text" data-name="Logo text">
        <path class="cls-1" d="m40.78,11.87c-7.55,0-13.46,5.66-13.46,12.87,0,6.21,4.86,10.82,11.48,10.82,7.56,0,13.46-5.66,13.46-12.87,0-6.21-4.85-10.82-11.48-10.82Zm-1.44,16.72c-2.55,0-4.38-1.88-4.38-4.37,0-2.93,2.35-5.38,5.28-5.38,2.56,0,4.39,1.86,4.39,4.37,0,2.93-2.36,5.38-5.29,5.38Z"/>
        <path class="cls-1" d="m68.04,11.87c-7.56,0-13.46,5.66-13.46,12.87,0,6.21,4.85,10.82,11.49,10.82,7.54,0,13.46-5.66,13.46-12.87,0-6.21-4.87-10.82-11.49-10.82Zm-1.45,16.72c-2.55,0-4.37-1.88-4.37-4.37,0-2.93,2.35-5.38,5.29-5.38,2.54,0,4.37,1.86,4.37,4.37,0,2.93-2.36,5.38-5.29,5.38Z"/>
        <path class="cls-1" d="m92.03,17.64c1.44,0,3.84.76,5.57,1.92l1.92-5.63c-2.31-1.34-5.24-2.06-7.64-2.06-.63,0-1.23.04-1.8.13-.32.08-.65.15-.98.21-.02,0-.05.02-.06.02-3.68.98-6.01,3.88-6.01,7.33,0,2.78,1.44,5.05,3.95,6.3l.96.48c1.62.81,2.17,1.29,2.17,1.96,0,.82-.79,1.3-1.99,1.3-1.97,0-4.13-.91-5.86-2.3l-1.83,5.53c2.22,1.68,5.05,2.73,8.23,2.73,5.23,0,8.79-3.08,8.79-7.59,0-3.12-1.64-5.24-4.9-6.97l-.96-.48c-1.11-.43-1.54-.96-1.54-1.59,0-.77.78-1.29,1.98-1.29Z"/>
        <path class="cls-1" d="m112.31,19.08h5.38l1.3-6.49h-5.43l1.27-6.47c-2.75.75-5.66,1.5-8.7,2.23l-.79,4.24h-2.6l-1.25,6.49h2.6l-1.4,7.15c-1.11,5.48,1.84,8.95,7.37,8.95,1.62,0,3.36-.24,4.61-.67l1.33-6.78c-.85.29-1.96.48-2.73.48-1.64,0-2.55-.91-2.21-2.84l1.25-6.29Z"/>
        <path class="cls-1" d="m133.23,0l-8.12.88-6.88,33.96h8.26L133.25,0h-.02Z"/>
        <path class="cls-1" d="m143.19,29.55c-1.68,0-3.04-.62-3.95-1.64l15.71-5.09c-.13-7.06-4.61-10.91-10.52-10.91-7.49,0-13.17,5.62-13.17,12.83,0,6.21,4.66,10.82,11.39,10.82,3.47,0,6.77-1.01,9.96-3.02l-1.51-5.83c-3.36,2.16-6.09,2.84-7.91,2.84Zm.72-11.58c1.58,0,2.97.63,3.74,1.83l-9.51,3.13c.57-2.84,2.93-4.96,5.77-4.96Z"/>
      </g>
      <g id="Icon">
        <path class="cls-2" d="m10.71,24.79l-3.47,10.22C1.95,33.3-.94,28.16.27,22.07L4.31,1.11,12.72.2l-2.55,13.26c1.5-.96,3.18-1.44,5-1.44.68,0,1.34.07,1.98.21l-10.84,12.84,4.4-.28Z"/>
        <path class="cls-2" d="m24.98,22.69c0,7.27-5.81,12.93-13.7,12.93-1.15,0-2.23-.13-3.24-.39l10.21-13.79-4.36.29,4.02-9.3c4.12,1.24,7.07,5.26,7.07,10.26Z"/>
      </g>
    </g>
  </g>
</svg>