<svg width="29" height="50" viewBox="0 0 29 50" fill="none" xmlns="http://www.w3.org/2000/svg">
<path fill-rule="evenodd" clip-rule="evenodd" d="M14.5782 8.16132L7.48585 1.06898L8.55484 0L14.5766 6.0218L20.5983 0.000127669L21.6673 1.06911L15.6456 7.09079L15.6472 7.09234L14.5782 8.16132ZM6.07806 11.0025L14.5784 19.5028L15.8596 18.2216L15.8578 18.2199L23.0741 11.0036L21.7929 9.72236L14.5766 16.9387L7.35926 9.72131L6.07806 11.0025ZM14.5782 34.0847L3.17669 22.6832L4.89518 20.9647L14.5755 30.645L24.2557 20.9648L25.9742 22.6833L16.294 32.3635L16.2967 32.3663L14.5782 34.0847ZM14.5764 49.9995L0.241211 35.6643L2.40186 33.5037L14.5729 45.6748L26.7439 33.5038L28.9045 35.6645L16.7336 47.8354L16.737 47.8389L14.5764 49.9995Z" fill="url(#paint0_linear_4536_3587)"/>
<defs>
<linearGradient id="paint0_linear_4536_3587" x1="14.5735" y1="34.0414" x2="14.5735" y2="0.414105" gradientUnits="userSpaceOnUse">
<stop stop-color="#1B59F8"/>
<stop offset="1" stop-color="#1B59F8" stop-opacity="0"/>
</linearGradient>
</defs>
</svg>
