<svg xmlns="http://www.w3.org/2000/svg" xmlns:xlink="http://www.w3.org/1999/xlink" width="1080" zoomAndPan="magnify" viewBox="0 0 810 809.999993" height="1080" preserveAspectRatio="xMidYMid meet" version="1.0"><defs><clipPath id="1dea66c22f"><path d="M 158.382812 149.960938 L 651.882812 149.960938 L 651.882812 659.960938 L 158.382812 659.960938 Z M 158.382812 149.960938 " clip-rule="nonzero"/></clipPath><clipPath id="42c87b7aac"><path d="M 71 97 L 727 97 L 727 719 L 71 719 Z M 71 97 " clip-rule="nonzero"/></clipPath><clipPath id="1086d37212"><path d="M -13.261719 196.71875 L 639.429688 24.609375 L 794.710938 613.480469 L 142.023438 785.589844 Z M -13.261719 196.71875 " clip-rule="nonzero"/></clipPath><clipPath id="4cd6dd6243"><path d="M -13.261719 196.71875 L 639.429688 24.609375 L 794.710938 613.480469 L 142.023438 785.589844 Z M -13.261719 196.71875 " clip-rule="nonzero"/></clipPath></defs><g clip-path="url(#1dea66c22f)"><rect x="-81" width="972" fill="#ffffff" y="-80.999999" height="971.999992" fill-opacity="1"/></g><path fill="#0affed" d="M 483.953125 417.835938 C 483.953125 462.199219 447.984375 498.167969 403.621094 498.167969 C 359.257812 498.167969 323.289062 462.199219 323.289062 417.835938 C 323.289062 373.472656 359.257812 337.503906 403.621094 337.503906 C 447.984375 337.503906 483.953125 373.472656 483.953125 417.835938 " fill-opacity="1" fill-rule="nonzero"/><path fill="#725bff" d="M 452.515625 593.945312 C 469.304688 602.195312 488.1875 606.824219 508.15625 606.824219 C 526.945312 606.824219 544.765625 602.726562 560.792969 595.371094 L 560.789062 591.8125 L 560.789062 576.269531 C 560.789062 546.640625 536.765625 522.617188 507.132812 522.617188 L 506.171875 522.617188 C 476.539062 522.617188 452.519531 546.640625 452.519531 576.269531 L 452.519531 591.8125 L 452.515625 593.945312 " fill-opacity="1" fill-rule="nonzero"/><path fill="#202254" d="M 506.65625 456.253906 C 490.285156 456.253906 476.96875 469.574219 476.96875 485.941406 C 476.96875 502.3125 490.285156 515.628906 506.65625 515.628906 C 523.023438 515.628906 536.34375 502.3125 536.34375 485.941406 C 536.34375 469.574219 523.023438 456.253906 506.65625 456.253906 Z M 506.65625 529.601562 C 482.578125 529.601562 462.996094 510.019531 462.996094 485.941406 C 462.996094 461.867188 482.578125 442.285156 506.65625 442.285156 C 530.730469 442.285156 550.3125 461.867188 550.3125 485.941406 C 550.3125 510.019531 530.730469 529.601562 506.65625 529.601562 " fill-opacity="1" fill-rule="nonzero"/><path fill="#202254" d="M 567.777344 592.46875 L 553.804688 592.46875 L 553.804688 576.269531 C 553.804688 550.535156 532.871094 529.601562 507.136719 529.601562 L 506.171875 529.601562 C 480.4375 529.601562 459.503906 550.535156 459.503906 576.269531 L 459.503906 592.46875 L 445.53125 592.46875 L 445.53125 576.269531 C 445.53125 542.835938 472.738281 515.628906 506.171875 515.628906 L 507.136719 515.628906 C 540.574219 515.628906 567.777344 542.835938 567.777344 576.269531 L 567.777344 592.46875 " fill-opacity="1" fill-rule="nonzero"/><path fill="#202254" d="M 504.910156 407.355469 C 450.984375 407.355469 407.113281 451.230469 407.113281 505.152344 C 407.113281 559.078125 450.984375 602.949219 504.910156 602.949219 C 558.832031 602.949219 602.703125 559.078125 602.703125 505.152344 C 602.703125 451.230469 558.832031 407.355469 504.910156 407.355469 Z M 504.910156 616.917969 C 443.28125 616.917969 393.140625 566.78125 393.140625 505.152344 C 393.140625 443.527344 443.28125 393.386719 504.910156 393.386719 C 566.539062 393.386719 616.675781 443.527344 616.675781 505.152344 C 616.675781 566.78125 566.539062 616.917969 504.910156 616.917969 " fill-opacity="1" fill-rule="nonzero"/><path fill="#725bff" d="M 253.429688 398.351562 C 270.21875 406.601562 289.105469 411.234375 309.074219 411.234375 C 327.859375 411.234375 345.683594 407.136719 361.707031 399.78125 L 361.703125 396.222656 L 361.703125 380.679688 C 361.703125 351.046875 337.679688 327.023438 308.050781 327.023438 L 307.089844 327.023438 C 277.457031 327.023438 253.433594 351.046875 253.433594 380.679688 L 253.433594 396.222656 L 253.429688 398.351562 " fill-opacity="1" fill-rule="nonzero"/><path fill="#202254" d="M 307.570312 260.664062 C 291.199219 260.664062 277.882812 273.980469 277.882812 290.351562 C 277.882812 306.722656 291.199219 320.039062 307.570312 320.039062 C 323.941406 320.039062 337.257812 306.722656 337.257812 290.351562 C 337.257812 273.980469 323.941406 260.664062 307.570312 260.664062 Z M 307.570312 334.011719 C 283.496094 334.011719 263.910156 314.425781 263.910156 290.351562 C 263.910156 266.277344 283.496094 246.691406 307.570312 246.691406 C 331.644531 246.691406 351.230469 266.277344 351.230469 290.351562 C 351.230469 314.425781 331.644531 334.011719 307.570312 334.011719 " fill-opacity="1" fill-rule="nonzero"/><path fill="#202254" d="M 368.691406 396.878906 L 354.722656 396.878906 L 354.722656 380.679688 C 354.722656 354.945312 333.789062 334.011719 308.054688 334.011719 L 307.089844 334.011719 C 281.355469 334.011719 260.417969 354.945312 260.417969 380.679688 L 260.417969 396.878906 L 246.449219 396.878906 L 246.449219 380.679688 C 246.449219 347.242188 273.652344 320.039062 307.089844 320.039062 L 308.054688 320.039062 C 341.488281 320.039062 368.691406 347.242188 368.691406 380.679688 L 368.691406 396.878906 " fill-opacity="1" fill-rule="nonzero"/><path fill="#202254" d="M 305.824219 211.765625 C 251.902344 211.765625 208.027344 255.636719 208.027344 309.5625 C 208.027344 363.488281 251.902344 407.355469 305.824219 407.355469 C 359.75 407.355469 403.621094 363.488281 403.621094 309.5625 C 403.621094 255.636719 359.75 211.765625 305.824219 211.765625 Z M 305.824219 421.328125 C 244.195312 421.328125 194.058594 371.191406 194.058594 309.5625 C 194.058594 247.933594 244.195312 197.792969 305.824219 197.792969 C 367.453125 197.792969 417.589844 247.933594 417.589844 309.5625 C 417.589844 371.191406 367.453125 421.328125 305.824219 421.328125 " fill-opacity="1" fill-rule="nonzero"/><path fill="#202254" d="M 594.078125 396.796875 L 580.113281 396.332031 C 580.183594 394.253906 580.222656 392.167969 580.222656 390.074219 C 580.222656 289.832031 498.664062 208.273438 398.417969 208.273438 C 394.773438 208.273438 391.0625 208.382812 387.402344 208.601562 L 386.574219 194.660156 C 390.511719 194.421875 394.496094 194.300781 398.417969 194.300781 C 506.363281 194.300781 594.191406 282.125 594.191406 390.074219 C 594.191406 392.324219 594.152344 394.570312 594.078125 396.796875 " fill-opacity="1" fill-rule="nonzero"/><path fill="#202254" d="M 587.28125 410.324219 L 554.804688 377.855469 L 564.683594 367.976562 L 587.28125 390.566406 L 608.082031 369.765625 L 617.960938 379.640625 L 587.28125 410.324219 " fill-opacity="1" fill-rule="nonzero"/><path fill="#202254" d="M 404.496094 620.410156 C 296.585938 620.410156 208.796875 532.621094 208.796875 424.710938 C 208.796875 422.460938 208.832031 420.21875 208.910156 417.992188 L 222.871094 418.457031 C 222.804688 420.535156 222.769531 422.617188 222.769531 424.710938 C 222.769531 524.917969 304.292969 606.441406 404.496094 606.441406 C 408.140625 606.441406 411.84375 606.332031 415.503906 606.113281 L 416.335938 620.054688 C 412.398438 620.292969 408.414062 620.410156 404.496094 620.410156 " fill-opacity="1" fill-rule="nonzero"/><path fill="#202254" d="M 238.292969 446.808594 L 215.707031 424.21875 L 194.910156 445.015625 L 185.03125 435.136719 L 215.707031 404.464844 L 248.171875 436.929688 L 238.292969 446.808594 " fill-opacity="1" fill-rule="nonzero"/><g clip-path="url(#42c87b7aac)"><g clip-path="url(#1086d37212)"><g clip-path="url(#4cd6dd6243)"><path fill="#5e17eb" d="M 703.277344 294.023438 C 701.195312 283.632812 698.3125 273.472656 694.632812 263.535156 C 678.585938 220.46875 648.019531 181.859375 606.171875 161.558594 C 593.558594 155.546875 580.429688 151.03125 566.785156 148.011719 C 546.542969 135.847656 525.109375 126.375 502.484375 119.605469 C 490.753906 116.085938 478.847656 113.324219 466.769531 111.320312 C 454.691406 109.316406 442.53125 108.082031 430.292969 107.617188 C 418.058594 107.15625 405.839844 107.46875 393.644531 108.558594 C 381.449219 109.644531 369.367188 111.5 357.40625 114.121094 C 344.652344 117.03125 332.121094 120.71875 319.820312 125.175781 C 307.519531 129.632812 295.539062 134.828125 283.878906 140.761719 C 272.21875 146.695312 260.96875 153.324219 250.125 160.648438 C 239.28125 167.96875 228.929688 175.929688 219.070312 184.53125 C 205.351562 196.386719 192.722656 209.304688 181.179688 223.285156 C 169.636719 237.265625 159.34375 252.113281 150.296875 267.824219 C 136.035156 280.035156 122.484375 292.992188 109.644531 306.691406 C 116.5 291.382812 124.386719 276.628906 133.304688 262.421875 C 142.222656 248.21875 152.082031 234.703125 162.886719 221.875 C 171.140625 212.195312 179.894531 202.996094 189.15625 194.277344 C 198.417969 185.554688 208.128906 177.371094 218.292969 169.71875 C 228.453125 162.070312 239.003906 155 249.941406 148.507812 C 260.882812 142.015625 272.144531 136.144531 283.730469 130.890625 C 294.917969 125.757812 306.359375 121.265625 318.050781 117.410156 C 329.742188 113.558594 341.613281 110.371094 353.660156 107.847656 C 365.707031 105.324219 377.859375 103.480469 390.117188 102.316406 C 402.371094 101.152344 414.652344 100.675781 426.960938 100.882812 C 427.175781 100.886719 427.382812 100.847656 427.582031 100.769531 C 427.777344 100.6875 427.957031 100.574219 428.109375 100.421875 C 428.261719 100.273438 428.378906 100.097656 428.464844 99.902344 C 428.546875 99.707031 428.59375 99.5 428.59375 99.285156 C 428.597656 99.070312 428.558594 98.863281 428.476562 98.664062 C 428.398438 98.464844 428.28125 98.289062 428.132812 98.136719 C 427.984375 97.984375 427.808594 97.863281 427.613281 97.78125 C 427.414062 97.695312 427.210938 97.652344 426.996094 97.652344 C 414.066406 97.4375 401.167969 97.972656 388.300781 99.253906 C 375.433594 100.53125 362.679688 102.550781 350.046875 105.308594 C 337.414062 108.0625 324.980469 111.539062 312.75 115.734375 C 300.515625 119.929688 288.566406 124.816406 276.902344 130.394531 C 265.238281 135.90625 253.910156 142.042969 242.925781 148.808594 C 231.941406 155.570312 221.359375 162.921875 211.1875 170.855469 C 201.015625 178.789062 191.3125 187.257812 182.078125 196.265625 C 172.839844 205.273438 164.128906 214.765625 155.945312 224.738281 C 144.789062 238.457031 134.679688 252.90625 125.609375 268.085938 C 116.542969 283.265625 108.609375 299.019531 101.816406 315.34375 C 91.984375 326.34375 82.574219 337.730469 73.753906 349.582031 C 71.789062 352.214844 76.21875 354.765625 78.164062 352.15625 C 83.929688 344.417969 89.996094 336.914062 96.214844 329.535156 C 93.367188 337.175781 90.757812 344.902344 88.382812 352.714844 C 84.769531 364.640625 81.734375 376.714844 79.28125 388.933594 C 76.828125 401.152344 74.964844 413.460938 73.691406 425.855469 C 72.417969 438.253906 71.742188 450.683594 71.664062 463.148438 C 71.585938 475.609375 72.101562 488.046875 73.21875 500.460938 C 75.925781 529.8125 82.320312 559.03125 95.03125 585.753906 C 99.757812 595.609375 105.257812 605.011719 111.53125 613.960938 C 117.800781 622.914062 124.761719 631.289062 132.410156 639.097656 C 163.398438 670.90625 203.828125 692.449219 246.195312 704.886719 C 257.171875 708.074219 268.28125 710.691406 279.523438 712.738281 C 290.765625 714.785156 302.085938 716.253906 313.480469 717.144531 C 324.871094 718.035156 336.28125 718.34375 347.707031 718.066406 C 359.132812 717.789062 370.511719 716.929688 381.851562 715.484375 C 405.703125 712.4375 429.074219 707.214844 451.953125 699.816406 C 474.835938 692.417969 496.839844 682.972656 517.964844 671.480469 C 526.210938 667 534.289062 662.214844 542.199219 657.121094 C 545.808594 655.335938 549.402344 653.511719 552.949219 651.609375 C 564.175781 645.585938 575.054688 638.984375 585.585938 631.8125 C 596.117188 624.636719 606.242188 616.925781 615.957031 608.683594 C 625.675781 600.4375 634.929688 591.703125 643.722656 582.480469 C 652.515625 573.257812 660.796875 563.597656 668.566406 553.5 C 699.890625 512.648438 722.230469 464.175781 725.707031 412.347656 C 726.296875 402.210938 726.265625 392.082031 725.613281 381.953125 C 724.957031 371.824219 723.683594 361.773438 721.792969 351.800781 C 719.902344 341.828125 717.410156 332.007812 714.3125 322.339844 C 711.214844 312.675781 707.535156 303.234375 703.277344 294.023438 Z M 540.96875 652.300781 C 530.03125 657.832031 518.824219 662.742188 507.34375 667.027344 C 495.863281 671.316406 484.179688 674.949219 472.292969 677.9375 C 460.410156 680.921875 448.394531 683.238281 436.25 684.886719 C 424.109375 686.535156 411.910156 687.503906 399.660156 687.796875 C 393.953125 687.871094 388.246094 687.78125 382.542969 687.519531 C 376.839844 687.261719 371.148438 686.835938 365.472656 686.242188 C 359.792969 685.648438 354.136719 684.886719 348.503906 683.960938 C 342.871094 683.035156 337.269531 681.945312 331.703125 680.6875 C 326.132812 679.433594 320.605469 678.015625 315.121094 676.433594 C 309.632812 674.855469 304.199219 673.113281 298.816406 671.214844 C 293.433594 669.3125 288.109375 667.257812 282.847656 665.042969 C 277.585938 662.832031 272.390625 660.464844 267.269531 657.945312 C 262.144531 655.429688 257.101562 652.761719 252.132812 649.945312 C 247.167969 647.132812 242.285156 644.171875 237.496094 641.070312 C 232.703125 637.96875 228.003906 634.730469 223.402344 631.351562 C 218.800781 627.972656 214.300781 624.464844 209.90625 620.820312 C 205.507812 617.179688 201.222656 613.410156 197.050781 609.515625 C 192.875 605.621094 188.820312 601.609375 184.878906 597.476562 C 180.941406 593.34375 177.128906 589.097656 173.441406 584.742188 C 169.75 580.382812 166.195312 575.921875 162.765625 571.355469 C 155.890625 562.0625 149.6875 552.339844 144.152344 542.191406 C 138.617188 532.039062 133.808594 521.558594 129.71875 510.746094 C 125.628906 499.929688 122.304688 488.886719 119.738281 477.617188 C 117.175781 466.34375 115.394531 454.949219 114.402344 443.429688 C 112.675781 422.554688 113.273438 401.746094 116.203125 381.003906 C 115.058594 391.871094 114.652344 402.761719 114.980469 413.679688 C 115.308594 424.601562 116.371094 435.449219 118.164062 446.222656 C 119.957031 457 122.464844 467.605469 125.6875 478.042969 C 128.914062 488.480469 132.824219 498.65625 137.421875 508.5625 C 156.867188 549.40625 188.753906 583.511719 226.578125 608.027344 C 236.179688 614.226562 246.125 619.820312 256.40625 624.8125 C 266.691406 629.804688 277.238281 634.15625 288.050781 637.871094 C 298.859375 641.582031 309.855469 644.625 321.039062 647.003906 C 332.21875 649.382812 343.503906 651.074219 354.886719 652.082031 C 404.492188 656.429688 454.707031 646.515625 500.175781 626.683594 C 511.933594 621.492188 523.382812 615.6875 534.519531 609.269531 C 545.65625 602.855469 556.421875 595.863281 566.8125 588.296875 C 577.207031 580.730469 587.164062 572.628906 596.691406 564 C 606.21875 555.371094 615.257812 546.257812 623.808594 536.660156 C 637.035156 522.042969 648.9375 506.417969 659.511719 489.78125 C 670.085938 473.148438 679.183594 455.738281 686.800781 437.558594 C 685.515625 445.542969 683.917969 453.464844 682.007812 461.324219 C 679.179688 472.59375 675.71875 483.664062 671.617188 494.535156 C 667.515625 505.40625 662.804688 516.003906 657.484375 526.332031 C 652.160156 536.660156 646.265625 546.648438 639.792969 556.296875 C 633.324219 565.945312 626.320312 575.191406 618.78125 584.03125 C 607.554688 597.253906 595.417969 609.582031 582.378906 621.019531 C 569.339844 632.460938 555.539062 642.886719 540.96875 652.300781 Z M 565.78125 153.152344 C 575.433594 159.058594 584.664062 165.566406 593.46875 172.671875 C 587.976562 169.351562 582.390625 166.199219 576.707031 163.21875 C 567.132812 158.210938 557.296875 153.714844 547.273438 149.675781 C 553.476562 150.59375 559.644531 151.753906 565.78125 153.152344 Z M 579.398438 170.230469 C 592.8125 177.5625 605.59375 185.871094 617.734375 195.160156 C 620.144531 197.707031 622.511719 200.296875 624.816406 202.953125 C 632.179688 211.648438 638.96875 220.769531 645.191406 230.316406 C 651.414062 239.863281 657.019531 249.757812 662.003906 260.007812 C 666.988281 270.253906 671.316406 280.769531 674.984375 291.558594 C 678.652344 302.347656 681.636719 313.320312 683.933594 324.480469 C 687.109375 339.398438 689.167969 354.464844 690.105469 369.6875 C 691.042969 384.90625 690.847656 400.113281 689.523438 415.308594 C 674.679688 460.644531 648.675781 502.257812 616.410156 537.207031 C 607.886719 546.488281 598.898438 555.296875 589.441406 563.625 C 579.984375 571.953125 570.113281 579.757812 559.828125 587.042969 C 549.546875 594.324219 538.90625 601.042969 527.90625 607.195312 C 516.910156 613.347656 505.621094 618.90625 494.035156 623.863281 C 449.121094 642.835938 399.597656 651.675781 350.953125 646.707031 C 339.800781 645.546875 328.757812 643.714844 317.824219 641.214844 C 306.890625 638.710938 296.152344 635.558594 285.601562 631.753906 C 275.050781 627.949219 264.769531 623.519531 254.757812 618.46875 C 244.746094 613.414062 235.078125 607.773438 225.75 601.546875 C 216.453125 595.441406 207.621094 588.71875 199.257812 581.382812 C 190.894531 574.046875 183.078125 566.167969 175.8125 557.746094 C 168.542969 549.320312 161.894531 540.4375 155.863281 531.089844 C 149.832031 521.742188 144.476562 512.023438 139.796875 501.929688 C 120.949219 460.136719 116 412.769531 122.808594 367.621094 C 125.503906 349.816406 129.917969 332.449219 136.050781 315.519531 C 142.183594 298.585938 149.917969 282.421875 159.25 267.019531 C 166.738281 260.800781 174.363281 254.726562 182.195312 248.945312 C 201.902344 234.398438 222.519531 221.277344 244.042969 209.582031 C 265.5625 197.882812 287.789062 187.726562 310.71875 179.105469 C 333.613281 170.457031 357.007812 163.472656 380.894531 158.148438 C 404.785156 152.828125 428.933594 149.21875 453.332031 147.328125 C 477.855469 145.421875 502.371094 145.4375 526.890625 147.367188 C 545.066406 153.4375 562.570312 161.058594 579.398438 170.230469 Z M 451.226562 142.25 C 426.320312 144.261719 401.6875 148.042969 377.324219 153.59375 C 352.964844 159.140625 329.121094 166.402344 305.800781 175.375 C 282.453125 184.320312 259.839844 194.847656 237.96875 206.964844 C 216.09375 219.078125 195.175781 232.664062 175.207031 247.714844 C 172.875 249.472656 170.605469 251.320312 168.304688 253.121094 C 170.929688 249.359375 173.621094 245.648438 176.445312 242.035156 C 206.847656 203.066406 248.398438 173.449219 293.976562 154.765625 C 302.292969 151.382812 310.730469 148.339844 319.289062 145.636719 C 327.851562 142.929688 336.503906 140.570312 345.253906 138.5625 C 354.003906 136.550781 362.820312 134.894531 371.699219 133.589844 C 380.582031 132.285156 389.503906 131.339844 398.460938 130.75 C 407.417969 130.164062 416.386719 129.933594 425.363281 130.066406 C 434.339844 130.195312 443.296875 130.6875 452.230469 131.535156 C 461.167969 132.386719 470.058594 133.59375 478.898438 135.15625 C 487.738281 136.71875 496.5 138.632812 505.1875 140.898438 C 487.175781 140.347656 469.1875 140.800781 451.226562 142.25 Z M 686.980469 315.789062 C 682.648438 297.441406 676.53125 279.710938 668.628906 262.597656 C 660.722656 245.484375 651.195312 229.328125 640.035156 214.132812 C 652.242188 225.515625 663.230469 237.96875 673.003906 251.496094 C 682.777344 265.027344 691.148438 279.371094 698.117188 294.535156 C 699.730469 302.773438 700.882812 311.074219 701.582031 319.441406 C 702.285156 327.804688 702.523438 336.183594 702.304688 344.574219 C 702.085938 352.964844 701.410156 361.320312 700.273438 369.636719 C 699.136719 377.953125 697.550781 386.183594 695.511719 394.328125 C 696.015625 367.777344 693.167969 341.59375 686.976562 315.777344 Z M 605.34375 167 C 646.425781 187.621094 676.226562 226.242188 691.167969 269.199219 C 691.515625 270.203125 691.808594 271.21875 692.140625 272.230469 C 690.167969 268.769531 688.140625 265.339844 686.015625 261.980469 C 677.34375 248.421875 667.550781 235.726562 656.640625 223.890625 C 645.730469 212.058594 633.871094 201.273438 621.058594 191.53125 C 608.960938 178.757812 595.675781 167.367188 581.203125 157.359375 C 589.507812 159.925781 597.554688 163.140625 605.34375 167 Z M 228.660156 182.765625 C 238.570312 174.558594 248.949219 166.992188 259.800781 160.074219 C 270.648438 153.152344 281.882812 146.929688 293.503906 141.40625 C 305.125 135.882812 317.046875 131.097656 329.261719 127.050781 C 341.476562 123.003906 353.894531 119.730469 366.515625 117.226562 C 378.285156 115 390.148438 113.527344 402.101562 112.800781 C 414.058594 112.078125 426.011719 112.109375 437.960938 112.894531 C 449.914062 113.679688 461.769531 115.214844 473.523438 117.5 C 485.28125 119.78125 496.847656 122.796875 508.226562 126.542969 C 523.242188 131.484375 537.726562 137.667969 551.675781 145.101562 C 543.84375 143.828125 535.980469 142.855469 528.085938 142.191406 C 527.566406 142.148438 527.042969 142.121094 526.523438 142.078125 C 516.75 138.871094 506.851562 136.109375 496.828125 133.800781 C 486.804688 131.492188 476.699219 129.636719 466.507812 128.246094 C 456.316406 126.851562 446.082031 125.925781 435.804688 125.460938 C 425.53125 124.996094 415.253906 124.996094 404.980469 125.464844 C 394.703125 125.933594 384.46875 126.867188 374.28125 128.265625 C 364.089844 129.660156 353.980469 131.515625 343.960938 133.832031 C 333.9375 136.144531 324.039062 138.910156 314.269531 142.121094 C 304.496094 145.335938 294.890625 148.984375 285.449219 153.066406 C 270.460938 159.554688 256.101562 167.21875 242.363281 176.054688 C 228.628906 184.890625 215.703125 194.78125 203.582031 205.730469 C 211.539062 197.636719 219.898438 189.980469 228.660156 182.765625 Z M 375.179688 711.699219 C 364.0625 712.914062 352.914062 713.5625 341.734375 713.640625 C 330.550781 713.722656 319.394531 713.234375 308.261719 712.179688 C 297.128906 711.125 286.078125 709.511719 275.109375 707.332031 C 264.144531 705.15625 253.3125 702.429688 242.621094 699.152344 C 201.039062 686.289062 161.613281 664.359375 131.808594 632.273438 C 124.332031 624.246094 117.582031 615.648438 111.558594 606.484375 C 105.535156 597.320312 100.320312 587.714844 95.917969 577.671875 C 83.855469 550.035156 78.394531 519.875 76.441406 489.925781 C 74.910156 465.871094 75.621094 441.878906 78.570312 417.953125 C 81.515625 394.027344 86.652344 370.578125 93.976562 347.613281 C 96.851562 338.601562 100.054688 329.710938 103.589844 320.941406 C 116.011719 306.886719 129.179688 293.574219 143.101562 281 C 138.753906 289.457031 134.789062 298.101562 131.199219 306.945312 C 126.46875 318.398438 122.46875 330.105469 119.203125 342.058594 C 115.9375 354.015625 113.433594 366.128906 111.6875 378.398438 C 109.941406 390.667969 108.96875 403 108.769531 415.390625 C 108.570312 427.785156 109.144531 440.140625 110.492188 452.457031 C 111.894531 464.023438 114.070312 475.441406 117.023438 486.707031 C 119.976562 497.976562 123.679688 508.992188 128.128906 519.757812 C 132.582031 530.523438 137.742188 540.933594 143.609375 551 C 149.480469 561.0625 156.003906 570.679688 163.179688 579.855469 C 166.789062 584.433594 170.527344 588.898438 174.398438 593.253906 C 178.269531 597.609375 182.265625 601.847656 186.386719 605.96875 C 190.511719 610.089844 194.75 614.085938 199.105469 617.957031 C 203.464844 621.824219 207.933594 625.5625 212.511719 629.167969 C 217.089844 632.777344 221.769531 636.242188 226.554688 639.574219 C 231.335938 642.902344 236.214844 646.089844 241.183594 649.132812 C 246.15625 652.171875 251.210938 655.066406 256.355469 657.808594 C 261.496094 660.550781 266.714844 663.140625 272.007812 665.578125 C 277.304688 668.011719 282.667969 670.289062 288.09375 672.40625 C 293.523438 674.523438 299.011719 676.480469 304.558594 678.277344 C 310.101562 680.070312 315.695312 681.699219 321.335938 683.164062 C 326.976562 684.628906 332.65625 685.925781 338.375 687.054688 C 344.089844 688.183594 349.835938 689.140625 355.613281 689.933594 C 361.386719 690.722656 367.179688 691.339844 372.988281 691.789062 C 378.800781 692.234375 384.617188 692.511719 390.445312 692.613281 C 396.273438 692.71875 402.097656 692.652344 407.921875 692.410156 C 424.507812 691.628906 440.9375 689.609375 457.21875 686.34375 C 473.496094 683.078125 489.4375 678.609375 505.042969 672.9375 C 484.734375 683.230469 463.667969 691.632812 441.851562 698.148438 C 420.035156 704.660156 397.808594 709.179688 375.179688 711.699219 Z M 720.179688 419.761719 C 715.054688 470.546875 691.261719 517.835938 659.503906 557.175781 C 647.914062 571.496094 635.285156 584.84375 621.628906 597.210938 C 607.96875 609.578125 593.441406 620.820312 578.039062 630.941406 C 596.210938 615.964844 612.683594 599.308594 627.457031 580.976562 C 634.902344 571.800781 641.792969 562.230469 648.128906 552.257812 C 654.464844 542.289062 660.203125 531.984375 665.347656 521.347656 C 670.488281 510.710938 674.996094 499.8125 678.875 488.652344 C 682.75 477.492188 685.96875 466.148438 688.53125 454.613281 C 691.164062 442.382812 693.054688 430.039062 694.199219 417.582031 C 695.46875 413.742188 696.6875 409.890625 697.796875 406.003906 C 702.117188 391.1875 705 376.09375 706.449219 360.730469 C 707.902344 345.363281 707.890625 329.996094 706.421875 314.632812 C 709.515625 323 712.132812 331.511719 714.273438 340.167969 C 716.414062 348.828125 718.0625 357.578125 719.21875 366.421875 C 720.375 375.265625 721.035156 384.148438 721.199219 393.066406 C 721.359375 401.984375 721.023438 410.882812 720.1875 419.761719 Z M 720.179688 419.761719 " fill-opacity="1" fill-rule="nonzero"/></g></g></g></svg>