<svg xmlns="http://www.w3.org/2000/svg" xmlns:xlink="http://www.w3.org/1999/xlink" width="1080" zoomAndPan="magnify" viewBox="0 0 810 809.999993" height="1080" preserveAspectRatio="xMidYMid meet" version="1.0"><defs><clipPath id="73044a7792"><path d="M 178.652344 164.617188 L 631.652344 164.617188 L 631.652344 645.367188 L 178.652344 645.367188 Z M 178.652344 164.617188 " clip-rule="nonzero"/></clipPath><clipPath id="b54377a512"><path d="M 45 108 L 727 108 L 727 701 L 45 701 Z M 45 108 " clip-rule="nonzero"/></clipPath><clipPath id="a7180901f6"><path d="M 119.191406 40.5 L 781.179688 172.402344 L 662.175781 769.660156 L 0.1875 637.761719 Z M 119.191406 40.5 " clip-rule="nonzero"/></clipPath><clipPath id="0157e04a92"><path d="M 119.191406 40.5 L 781.179688 172.402344 L 662.175781 769.660156 L 0.1875 637.761719 Z M 119.191406 40.5 " clip-rule="nonzero"/></clipPath></defs><g clip-path="url(#73044a7792)"><rect x="-81" width="972" fill="#ffffff" y="-80.999999" height="971.999992" fill-opacity="1"/></g><path fill="#725bff" d="M 407.265625 259.96875 L 430.847656 307.757812 L 483.585938 315.417969 L 445.425781 352.613281 L 454.433594 405.140625 L 407.265625 380.339844 L 360.097656 405.140625 L 369.101562 352.613281 L 330.945312 315.417969 L 383.683594 307.757812 L 407.265625 259.96875 " fill-opacity="1" fill-rule="nonzero"/><path fill="#0affed" d="M 510.378906 330.347656 L 523.566406 492.714844 L 368.140625 443.914062 Z M 510.378906 330.347656 " fill-opacity="1" fill-rule="nonzero"/><path fill="#202254" d="M 359.226562 538.601562 L 346.550781 534.976562 L 366.324219 465.769531 L 379 469.394531 L 359.226562 538.601562 " fill-opacity="1" fill-rule="nonzero"/><path fill="#202254" d="M 455.304688 538.601562 L 435.53125 469.394531 L 448.203125 465.769531 L 467.976562 534.976562 L 455.304688 538.601562 " fill-opacity="1" fill-rule="nonzero"/><path fill="#202254" d="M 290.273438 227.011719 L 290.273438 348.945312 C 290.273438 412.546875 342.015625 464.289062 405.617188 464.289062 C 469.21875 464.289062 520.960938 412.546875 520.960938 348.945312 L 520.960938 227.011719 Z M 405.617188 477.46875 C 334.746094 477.46875 277.09375 419.816406 277.09375 348.945312 L 277.09375 213.832031 L 534.140625 213.832031 L 534.140625 348.945312 C 534.140625 419.816406 476.488281 477.46875 405.617188 477.46875 " fill-opacity="1" fill-rule="nonzero"/><path fill="#202254" d="M 310.046875 579.628906 L 504.480469 579.628906 L 504.480469 561.359375 C 504.480469 551.445312 496.417969 543.378906 486.5 543.378906 L 328.027344 543.378906 C 318.113281 543.378906 310.046875 551.445312 310.046875 561.359375 Z M 517.664062 592.8125 L 296.867188 592.8125 L 296.867188 561.359375 C 296.867188 544.175781 310.84375 530.199219 328.027344 530.199219 L 486.5 530.199219 C 503.683594 530.199219 517.664062 544.175781 517.664062 561.359375 L 517.664062 592.8125 " fill-opacity="1" fill-rule="nonzero"/><path fill="#202254" d="M 407.265625 372.894531 L 445.679688 393.09375 L 438.34375 350.3125 L 469.421875 320.023438 L 426.472656 313.78125 L 407.265625 274.863281 L 388.058594 313.78125 L 345.109375 320.023438 L 376.183594 350.3125 L 368.847656 393.09375 Z M 463.1875 417.1875 L 407.265625 387.785156 L 351.339844 417.1875 L 362.019531 354.917969 L 316.78125 310.816406 L 379.304688 301.730469 L 407.265625 245.074219 L 435.222656 301.730469 L 497.75 310.816406 L 452.507812 354.917969 L 463.1875 417.1875 " fill-opacity="1" fill-rule="nonzero"/><path fill="#202254" d="M 526.546875 388.492188 L 526.546875 375.308594 C 548.90625 375.308594 567.097656 357.121094 567.097656 334.757812 L 567.097656 269.855469 L 530.847656 269.855469 L 530.847656 256.671875 L 580.277344 256.671875 L 580.277344 334.757812 C 580.277344 364.390625 556.175781 388.492188 526.546875 388.492188 " fill-opacity="1" fill-rule="nonzero"/><path fill="#202254" d="M 284.6875 388.492188 C 255.058594 388.492188 230.957031 364.390625 230.957031 334.757812 L 230.957031 256.671875 L 280.386719 256.671875 L 280.386719 269.855469 L 244.136719 269.855469 L 244.136719 334.757812 C 244.136719 357.121094 262.328125 375.308594 284.6875 375.308594 L 284.6875 388.492188 " fill-opacity="1" fill-rule="nonzero"/><g clip-path="url(#b54377a512)"><g clip-path="url(#a7180901f6)"><g clip-path="url(#0157e04a92)"><path fill="#5e17eb" d="M 720.269531 442.492188 C 722.957031 432.246094 724.832031 421.847656 725.886719 411.304688 C 730.378906 365.566406 719.863281 317.457031 691.175781 280.84375 C 682.480469 269.90625 672.667969 260.085938 661.734375 251.386719 C 648.886719 231.566406 633.789062 213.648438 616.433594 197.628906 C 607.4375 189.320312 597.953125 181.613281 587.980469 174.507812 C 578.007812 167.402344 567.625 160.957031 556.832031 155.171875 C 546.042969 149.382812 534.929688 144.300781 523.492188 139.921875 C 512.054688 135.546875 500.386719 131.910156 488.488281 129.011719 C 475.75 126.03125 462.875 123.839844 449.867188 122.445312 C 436.859375 121.046875 423.8125 120.457031 410.730469 120.671875 C 397.648438 120.882812 384.628906 121.898438 371.671875 123.71875 C 358.714844 125.539062 345.921875 128.144531 333.285156 131.542969 C 315.757812 136.171875 298.738281 142.238281 282.230469 149.730469 C 265.71875 157.222656 249.953125 166.042969 234.925781 176.191406 C 216.753906 180.898438 198.890625 186.589844 181.339844 193.265625 C 194.21875 182.519531 207.78125 172.722656 222.03125 163.875 C 236.277344 155.027344 251.074219 147.214844 266.414062 140.433594 C 278.078125 135.355469 289.984375 130.933594 302.132812 127.167969 C 314.28125 123.398438 326.601562 120.308594 339.089844 117.894531 C 351.578125 115.484375 364.160156 113.761719 376.839844 112.730469 C 389.519531 111.699219 402.214844 111.367188 414.929688 111.734375 C 427.234375 112.035156 439.488281 113.019531 451.683594 114.691406 C 463.878906 116.363281 475.945312 118.710938 487.878906 121.730469 C 499.8125 124.753906 511.539062 128.429688 523.0625 132.765625 C 534.582031 137.101562 545.828125 142.0625 556.792969 147.65625 C 556.984375 147.75 557.1875 147.808594 557.402344 147.824219 C 557.617188 147.839844 557.824219 147.8125 558.027344 147.746094 C 558.230469 147.679688 558.414062 147.574219 558.574219 147.433594 C 558.738281 147.292969 558.867188 147.128906 558.964844 146.9375 C 559.058594 146.746094 559.117188 146.542969 559.132812 146.328125 C 559.148438 146.113281 559.121094 145.90625 559.054688 145.703125 C 558.984375 145.5 558.882812 145.316406 558.742188 145.152344 C 558.601562 144.992188 558.4375 144.863281 558.246094 144.765625 C 546.722656 138.898438 534.898438 133.714844 522.773438 129.214844 C 510.652344 124.71875 498.308594 120.933594 485.746094 117.863281 C 473.183594 114.792969 460.488281 112.457031 447.65625 110.859375 C 434.824219 109.257812 421.945312 108.402344 409.011719 108.292969 C 396.113281 108.125 383.242188 108.667969 370.402344 109.921875 C 357.5625 111.175781 344.832031 113.132812 332.210938 115.796875 C 319.585938 118.457031 307.148438 121.808594 294.894531 125.847656 C 282.644531 129.886719 270.652344 134.589844 258.917969 139.957031 C 242.875 147.386719 227.445312 155.929688 212.632812 165.585938 C 197.820312 175.246094 183.777344 185.917969 170.507812 197.601562 C 156.84375 203.167969 143.390625 209.269531 130.261719 216.042969 C 127.339844 217.546875 130.203125 221.785156 133.097656 220.292969 C 141.675781 215.871094 150.417969 211.789062 159.242188 207.890625 C 153.332031 213.507812 147.59375 219.304688 142.035156 225.28125 C 133.550781 234.410156 125.523438 243.925781 117.953125 253.824219 C 110.382812 263.726562 103.308594 273.96875 96.71875 284.546875 C 90.132812 295.128906 84.070312 306 78.527344 317.164062 C 72.984375 328.324219 67.992188 339.726562 63.542969 351.371094 C 53.089844 378.929688 46.007812 407.992188 45.699219 437.582031 C 45.621094 448.511719 46.433594 459.375 48.136719 470.167969 C 49.84375 480.964844 52.417969 491.546875 55.863281 501.917969 C 69.742188 544.105469 96.609375 581.207031 129.214844 610.984375 C 137.675781 618.664062 146.511719 625.890625 155.714844 632.667969 C 164.914062 639.445312 174.441406 645.734375 184.285156 651.535156 C 194.132812 657.335938 204.25 662.621094 214.636719 667.386719 C 225.023438 672.152344 235.625 676.378906 246.445312 680.058594 C 269.214844 687.792969 292.503906 693.359375 316.3125 696.757812 C 340.117188 700.15625 364.035156 701.332031 388.058594 700.277344 C 397.4375 699.875 406.796875 699.121094 416.136719 698.015625 C 420.167969 697.996094 424.195312 697.933594 428.214844 697.78125 C 440.949219 697.296875 453.621094 696.144531 466.234375 694.320312 C 478.84375 692.5 491.324219 690.015625 503.675781 686.875 C 516.023438 683.734375 528.171875 679.949219 540.121094 675.523438 C 552.070312 671.097656 563.753906 666.050781 575.167969 660.390625 C 621.246094 637.4375 662.597656 603.695312 688.476562 558.652344 C 693.457031 549.804688 697.875 540.691406 701.734375 531.300781 C 705.59375 521.914062 708.863281 512.324219 711.542969 502.535156 C 714.222656 492.742188 716.289062 482.828125 717.75 472.78125 C 719.210938 462.738281 720.050781 452.640625 720.269531 442.492188 Z M 417.148438 693.140625 C 404.894531 693.3125 392.667969 692.804688 380.472656 691.617188 C 368.273438 690.425781 356.183594 688.5625 344.191406 686.027344 C 332.203125 683.492188 320.390625 680.300781 308.757812 676.449219 C 297.121094 672.601562 285.738281 668.117188 274.601562 663 C 269.441406 660.5625 264.355469 657.972656 259.34375 655.238281 C 254.332031 652.5 249.410156 649.621094 244.566406 646.59375 C 239.726562 643.566406 234.980469 640.402344 230.324219 637.097656 C 225.667969 633.792969 221.117188 630.351562 216.664062 626.777344 C 212.210938 623.207031 207.867188 619.503906 203.632812 615.675781 C 199.398438 611.847656 195.277344 607.898438 191.277344 603.828125 C 187.273438 599.757812 183.394531 595.574219 179.636719 591.273438 C 175.878906 586.976562 172.253906 582.570312 168.753906 578.058594 C 165.257812 573.546875 161.894531 568.9375 158.667969 564.226562 C 155.441406 559.515625 152.355469 554.71875 149.414062 549.824219 C 146.46875 544.933594 143.671875 539.960938 141.019531 534.90625 C 138.367188 529.851562 135.863281 524.722656 133.515625 519.519531 C 131.164062 514.316406 128.96875 509.050781 126.925781 503.71875 C 124.886719 498.386719 123.003906 493 121.28125 487.558594 C 119.554688 482.113281 117.992188 476.625 116.589844 471.09375 C 115.191406 465.558594 113.953125 459.988281 112.878906 454.382812 C 110.78125 443.011719 109.472656 431.554688 108.957031 420.003906 C 108.441406 408.457031 108.71875 396.925781 109.792969 385.414062 C 110.867188 373.90625 112.726562 362.523438 115.371094 351.269531 C 118.015625 340.015625 121.421875 328.996094 125.585938 318.210938 C 133.195312 298.695312 142.871094 280.261719 154.605469 262.914062 C 148.8125 272.171875 143.664062 281.78125 139.164062 291.734375 C 134.667969 301.6875 130.855469 311.902344 127.738281 322.371094 C 124.617188 332.839844 122.214844 343.472656 120.527344 354.265625 C 118.84375 365.058594 117.890625 375.914062 117.671875 386.835938 C 117.210938 432.070312 130.890625 476.710938 154.109375 515.34375 C 160.019531 525.128906 166.496094 534.519531 173.542969 543.519531 C 180.589844 552.519531 188.15625 561.0625 196.242188 569.144531 C 204.324219 577.222656 212.867188 584.789062 221.871094 591.832031 C 230.871094 598.878906 240.265625 605.351562 250.054688 611.257812 C 292.714844 636.9375 342.183594 650.074219 391.742188 652.21875 C 404.585938 652.714844 417.421875 652.527344 430.246094 651.652344 C 443.070312 650.773438 455.8125 649.21875 468.46875 646.984375 C 481.128906 644.746094 493.632812 641.84375 505.980469 638.269531 C 518.328125 634.699219 530.449219 630.476562 542.347656 625.609375 C 560.648438 618.285156 578.199219 609.472656 595.003906 599.167969 C 611.808594 588.863281 627.625 577.214844 642.453125 564.222656 C 637.792969 570.832031 632.878906 577.25 627.710938 583.472656 C 620.222656 592.359375 612.25 600.785156 603.796875 608.75 C 595.339844 616.714844 586.453125 624.171875 577.136719 631.113281 C 567.824219 638.058594 558.140625 644.441406 548.089844 650.269531 C 538.039062 656.097656 527.6875 661.332031 517.035156 665.96875 C 501.140625 672.914062 484.828125 678.664062 468.089844 683.21875 C 451.351562 687.773438 434.371094 691.082031 417.152344 693.144531 Z M 658.574219 255.5625 C 664.65625 265.105469 670.089844 275.003906 674.882812 285.253906 C 671.40625 279.859375 667.769531 274.574219 663.972656 269.402344 C 657.570312 260.699219 650.707031 252.339844 643.472656 244.3125 C 648.644531 247.859375 653.675781 251.609375 658.574219 255.5625 Z M 663.3125 276.886719 C 672.144531 289.359375 679.980469 302.4375 686.8125 316.113281 C 687.859375 319.460938 688.851562 322.824219 689.753906 326.222656 C 692.550781 337.269531 694.648438 348.445312 696.050781 359.753906 C 697.449219 371.0625 698.140625 382.414062 698.117188 393.808594 C 698.097656 405.207031 697.371094 416.554688 695.929688 427.859375 C 694.488281 439.160156 692.351562 450.332031 689.515625 461.367188 C 685.824219 476.164062 681.054688 490.605469 675.214844 504.691406 C 669.375 518.78125 662.527344 532.359375 654.667969 545.429688 C 621.425781 579.644531 579.792969 605.617188 535.460938 622.855469 C 523.726562 627.453125 511.785156 631.417969 499.628906 634.75 C 487.476562 638.082031 475.183594 640.761719 462.746094 642.789062 C 450.308594 644.816406 437.796875 646.183594 425.214844 646.882812 C 412.632812 647.585938 400.050781 647.621094 387.464844 646.988281 C 338.78125 644.320312 290.402344 630.519531 248.878906 604.699219 C 239.367188 598.761719 230.25 592.265625 221.527344 585.21875 C 212.800781 578.171875 204.535156 570.625 196.726562 562.574219 C 188.917969 554.523438 181.625 546.03125 174.847656 537.09375 C 168.070312 528.160156 161.859375 518.847656 156.210938 509.160156 C 150.539062 499.589844 145.554688 489.671875 141.261719 479.410156 C 136.96875 469.148438 133.40625 458.636719 130.574219 447.878906 C 127.742188 437.121094 125.667969 426.21875 124.351562 415.171875 C 123.035156 404.125 122.492188 393.039062 122.71875 381.917969 C 124.132812 336.09375 140.480469 291.363281 166.417969 253.789062 C 176.65625 238.972656 188.246094 225.308594 201.191406 212.789062 C 214.132812 200.265625 228.179688 189.136719 243.324219 179.394531 C 252.785156 177.09375 262.300781 174.988281 271.875 173.230469 C 295.96875 168.8125 320.253906 166.074219 344.726562 165.011719 C 369.199219 163.953125 393.625 164.582031 418.011719 166.902344 C 442.378906 169.1875 466.464844 173.179688 490.265625 178.886719 C 514.066406 184.589844 537.34375 191.949219 560.097656 200.964844 C 582.96875 210.015625 604.992188 220.792969 626.171875 233.292969 C 639.839844 246.726562 652.21875 261.257812 663.3125 276.886719 Z M 560.4375 195.476562 C 537.175781 186.347656 513.382812 178.933594 489.058594 173.222656 C 464.734375 167.511719 440.125 163.570312 415.234375 161.394531 C 390.328125 159.179688 365.386719 158.710938 340.417969 159.996094 C 315.445312 161.277344 290.6875 164.300781 266.140625 169.058594 C 263.269531 169.613281 260.421875 170.277344 257.5625 170.886719 C 261.570312 168.65625 265.621094 166.503906 269.742188 164.496094 C 314.167969 142.832031 364.503906 134.460938 413.65625 137.683594 C 422.613281 138.296875 431.527344 139.265625 440.40625 140.59375 C 449.285156 141.921875 458.097656 143.601562 466.839844 145.636719 C 475.585938 147.671875 484.234375 150.054688 492.785156 152.78125 C 501.339844 155.507812 509.769531 158.574219 518.074219 161.980469 C 526.382812 165.382812 534.539062 169.113281 542.546875 173.171875 C 550.554688 177.230469 558.386719 181.605469 566.042969 186.292969 C 573.699219 190.976562 581.15625 195.964844 588.414062 201.25 C 595.671875 206.535156 602.703125 212.101562 609.515625 217.949219 C 593.570312 209.550781 577.210938 202.058594 560.4375 195.476562 Z M 696.070312 454.894531 C 700.234375 436.507812 702.519531 417.894531 702.933594 399.046875 C 703.34375 380.199219 701.875 361.5 698.519531 342.949219 C 704.492188 358.535156 708.898438 374.550781 711.738281 390.996094 C 714.578125 407.441406 715.804688 424.003906 715.410156 440.6875 C 713.238281 448.796875 710.632812 456.761719 707.589844 464.585938 C 704.546875 472.410156 701.082031 480.042969 697.203125 487.484375 C 693.320312 494.929688 689.046875 502.136719 684.375 509.113281 C 679.703125 516.085938 674.664062 522.785156 669.257812 529.207031 C 681.363281 505.574219 690.300781 480.800781 696.074219 454.882812 Z M 688.042969 285.371094 C 715.898438 321.9375 725.722656 369.71875 720.285156 414.871094 C 720.15625 415.929688 719.976562 416.96875 719.832031 418.023438 C 719.574219 414.050781 719.261719 410.078125 718.828125 406.125 C 716.988281 390.136719 713.765625 374.429688 709.15625 359.007812 C 704.546875 343.589844 698.625 328.691406 691.390625 314.3125 C 686.128906 297.523438 679.195312 281.457031 670.585938 266.113281 C 676.917969 272.066406 682.738281 278.484375 688.042969 285.371094 Z M 342.679688 134.167969 C 355.1875 131.144531 367.832031 128.90625 380.617188 127.449219 C 393.402344 125.996094 406.230469 125.339844 419.097656 125.476562 C 431.964844 125.613281 444.773438 126.546875 457.523438 128.273438 C 470.277344 130 482.871094 132.511719 495.3125 135.800781 C 506.863281 138.972656 518.167969 142.855469 529.226562 147.449219 C 540.285156 152.046875 551.011719 157.324219 561.40625 163.277344 C 571.800781 169.230469 581.777344 175.8125 591.335938 183.027344 C 600.898438 190.238281 609.96875 198.027344 618.542969 206.386719 C 629.867188 217.417969 640.164062 229.332031 649.4375 242.136719 C 642.960938 237.550781 636.320312 233.226562 629.515625 229.164062 C 629.070312 228.898438 628.613281 228.644531 628.164062 228.378906 C 620.792969 221.203125 613.109375 214.378906 605.117188 207.902344 C 597.125 201.425781 588.859375 195.324219 580.3125 189.601562 C 571.769531 183.875 562.980469 178.546875 553.953125 173.621094 C 544.921875 168.691406 535.691406 164.183594 526.253906 160.09375 C 516.8125 156 507.210938 152.347656 497.441406 149.128906 C 487.671875 145.910156 477.777344 143.140625 467.753906 140.820312 C 457.734375 138.5 447.628906 136.636719 437.4375 135.234375 C 427.25 133.832031 417.015625 132.890625 406.742188 132.417969 C 390.425781 131.664062 374.15625 132.246094 357.9375 134.152344 C 341.71875 136.0625 325.757812 139.277344 310.0625 143.792969 C 320.765625 140.011719 331.636719 136.804688 342.679688 134.167969 Z M 242.113281 673.730469 C 231.59375 669.941406 221.292969 665.628906 211.210938 660.789062 C 201.128906 655.953125 191.316406 650.617188 181.777344 644.785156 C 172.238281 638.949219 163.019531 632.644531 154.121094 625.875 C 145.222656 619.105469 136.6875 611.898438 128.523438 604.261719 C 96.808594 574.449219 71.011719 537.4375 58.320312 495.519531 C 55.125 485.027344 52.835938 474.34375 51.445312 463.464844 C 50.058594 452.582031 49.589844 441.664062 50.042969 430.707031 C 51.335938 400.582031 59.671875 371.085938 71.0625 343.320312 C 80.25 321.035156 91.421875 299.789062 104.574219 279.585938 C 117.726562 259.382812 132.636719 240.574219 149.300781 223.152344 C 155.835938 216.320312 162.617188 209.738281 169.640625 203.410156 C 186.972656 196.234375 204.652344 190.054688 222.675781 184.871094 C 215.0625 190.558594 207.699219 196.585938 200.59375 202.953125 C 191.3125 211.167969 182.582031 219.929688 174.402344 229.238281 C 166.21875 238.546875 158.648438 248.332031 151.695312 258.589844 C 144.738281 268.847656 138.453125 279.5 132.832031 290.542969 C 127.210938 301.589844 122.304688 312.945312 118.109375 324.605469 C 114.289062 335.609375 111.234375 346.824219 108.9375 358.246094 C 106.644531 369.664062 105.136719 381.1875 104.410156 392.816406 C 103.683594 404.441406 103.75 416.0625 104.605469 427.679688 C 105.460938 439.296875 107.097656 450.804688 109.519531 462.199219 C 110.75 467.894531 112.148438 473.550781 113.714844 479.164062 C 115.28125 484.777344 117.011719 490.339844 118.90625 495.851562 C 120.800781 501.363281 122.855469 506.8125 125.070312 512.203125 C 127.289062 517.59375 129.660156 522.914062 132.191406 528.164062 C 134.722656 533.414062 137.402344 538.585938 140.238281 543.675781 C 143.074219 548.769531 146.058594 553.773438 149.191406 558.6875 C 152.320312 563.601562 155.59375 568.421875 159.011719 573.144531 C 162.425781 577.867188 165.976562 582.484375 169.667969 586.996094 C 173.355469 591.507812 177.171875 595.90625 181.121094 600.195312 C 185.070312 604.480469 189.140625 608.648438 193.335938 612.695312 C 197.527344 616.742188 201.839844 620.660156 206.261719 624.453125 C 210.6875 628.246094 215.222656 631.902344 219.863281 635.425781 C 224.507812 638.953125 229.246094 642.335938 234.089844 645.582031 C 238.929688 648.824219 243.863281 651.921875 248.886719 654.875 C 253.910156 657.828125 259.019531 660.632812 264.207031 663.285156 C 269.398438 665.9375 274.664062 668.433594 280 670.773438 C 295.242188 677.351562 310.894531 682.75 326.957031 686.964844 C 343.015625 691.175781 359.300781 694.160156 375.8125 695.914062 C 353.042969 696.246094 330.429688 694.550781 307.96875 690.824219 C 285.503906 687.09375 263.554688 681.398438 242.113281 673.730469 Z M 680.253906 562.890625 C 653.351562 606.265625 611.21875 638.308594 565.414062 659.714844 C 548.710938 667.492188 531.507812 673.941406 513.804688 679.058594 C 496.105469 684.171875 478.113281 687.894531 459.835938 690.226562 C 482.734375 684.746094 504.847656 677.015625 526.171875 667.027344 C 536.886719 662.054688 547.28125 656.480469 557.351562 650.304688 C 567.421875 644.125 577.101562 637.386719 586.390625 630.089844 C 595.679688 622.789062 604.515625 614.976562 612.898438 606.652344 C 621.28125 598.328125 629.152344 589.546875 636.519531 580.308594 C 644.253906 570.476562 651.371094 560.214844 657.867188 549.523438 C 660.695312 546.632812 663.480469 543.707031 666.183594 540.699219 C 676.570312 529.285156 685.785156 516.988281 693.835938 503.820312 C 701.882812 490.652344 708.621094 476.84375 714.046875 462.394531 C 713.152344 471.265625 711.769531 480.0625 709.890625 488.78125 C 708.011719 497.5 705.648438 506.089844 702.808594 514.542969 C 699.964844 522.996094 696.660156 531.265625 692.890625 539.347656 C 689.121094 547.433594 684.910156 555.28125 680.261719 562.890625 Z M 680.253906 562.890625 " fill-opacity="1" fill-rule="nonzero"/></g></g></g></svg>