<svg xmlns="http://www.w3.org/2000/svg" xmlns:xlink="http://www.w3.org/1999/xlink" width="1080" zoomAndPan="magnify" viewBox="0 0 810 809.999993" height="1080" preserveAspectRatio="xMidYMid meet" version="1.0"><defs><clipPath id="4d436f05ff"><path d="M 167.917969 199.472656 L 613.417969 199.472656 L 613.417969 610.472656 L 167.917969 610.472656 Z M 167.917969 199.472656 " clip-rule="nonzero"/></clipPath><clipPath id="483aa05c14"><path d="M 59 103 L 726 103 L 726 709 L 59 709 Z M 59 103 " clip-rule="nonzero"/></clipPath><clipPath id="48c4b6d7a9"><path d="M 34.675781 122.484375 L 708.332031 79.917969 L 746.734375 687.707031 L 73.078125 730.269531 Z M 34.675781 122.484375 " clip-rule="nonzero"/></clipPath><clipPath id="d9392f83dc"><path d="M 34.675781 122.484375 L 708.332031 79.917969 L 746.734375 687.707031 L 73.078125 730.269531 Z M 34.675781 122.484375 " clip-rule="nonzero"/></clipPath></defs><g clip-path="url(#4d436f05ff)"><rect x="-81" width="972" fill="#ffffff" y="-80.999999" height="971.999992" fill-opacity="1"/></g><path fill="#725bff" d="M 358.171875 285.273438 L 449.136719 394.132812 L 314.074219 437.527344 Z M 358.171875 285.273438 " fill-opacity="1" fill-rule="nonzero"/><path fill="#10075e" d="M 286.34375 567.214844 L 526.316406 567.214844 C 540.558594 567.214844 552.144531 555.628906 552.144531 541.386719 L 552.144531 529.90625 L 296.730469 529.90625 L 296.730469 541.386719 C 296.730469 551.074219 292.984375 560.296875 286.34375 567.214844 Z M 526.316406 578.695312 L 259.421875 578.6875 C 257.316406 578.695312 255.371094 578.53125 253.34375 578.210938 C 235.539062 575.382812 222.117188 559.167969 222.117188 540.496094 L 222.117188 248.667969 L 500.488281 248.667969 L 500.488281 283.105469 L 489.007812 283.105469 L 489.007812 260.148438 L 233.59375 260.148438 L 233.59375 540.496094 C 233.59375 553.582031 242.863281 564.917969 255.148438 566.875 C 256.582031 567.101562 258.011719 567.21875 259.421875 567.21875 C 259.421875 567.214844 259.910156 567.214844 259.910156 567.214844 C 265.902344 567.113281 271.550781 564.992188 276.183594 561.042969 C 281.945312 556.121094 285.25 548.957031 285.25 541.386719 L 285.25 518.429688 L 563.621094 518.429688 L 563.621094 541.386719 C 563.621094 561.957031 546.886719 578.695312 526.316406 578.695312 " fill-opacity="1" fill-rule="nonzero"/><path fill="#10075e" d="M 500.488281 524.167969 L 489.007812 524.167969 L 489.007812 415.117188 L 500.488281 415.117188 L 500.488281 524.167969 " fill-opacity="1" fill-rule="nonzero"/><path fill="#10075e" d="M 359.867188 360.589844 L 270.902344 360.589844 L 270.902344 349.109375 L 359.867188 349.109375 L 359.867188 360.589844 " fill-opacity="1" fill-rule="nonzero"/><path fill="#10075e" d="M 359.867188 412.246094 L 270.902344 412.246094 L 270.902344 400.765625 L 359.867188 400.765625 L 359.867188 412.246094 " fill-opacity="1" fill-rule="nonzero"/><path fill="#10075e" d="M 359.867188 466.773438 L 270.902344 466.773438 L 270.902344 455.292969 L 359.867188 455.292969 L 359.867188 466.773438 " fill-opacity="1" fill-rule="nonzero"/><path fill="#10075e" d="M 428.742188 306.0625 L 270.902344 306.0625 L 270.902344 294.585938 L 428.742188 294.585938 L 428.742188 306.0625 " fill-opacity="1" fill-rule="nonzero"/><path fill="#0affed" d="M 545.992188 316.214844 C 555.59375 294.140625 553.667969 268.253906 553.667969 268.253906 C 553.667969 268.253906 415.894531 275.621094 409.109375 417.042969 L 414.390625 443.8125 L 442.804688 440.554688 C 521.699219 427.335938 550.457031 352.988281 550.457031 352.988281 L 524.324219 354.339844 C 524.324219 354.339844 536.46875 338.128906 545.992188 316.214844 " fill-opacity="1" fill-rule="nonzero"/><path fill="#10075e" d="M 387.585938 505.867188 L 391.679688 494.886719 C 391.964844 494.128906 420.175781 418.707031 445.273438 372.46875 L 455.363281 377.945312 C 436.339844 412.988281 415.410156 465.296875 406.652344 487.875 L 419.144531 483.96875 C 423.644531 470.375 444.191406 411.097656 478.226562 354.136719 C 497.304688 322.210938 524.414062 286.03125 524.6875 285.671875 L 533.867188 292.5625 C 533.597656 292.917969 506.839844 328.625 488.082031 360.023438 C 450.246094 423.347656 429.375 489.605469 429.167969 490.265625 L 428.273438 493.140625 L 387.585938 505.867188 " fill-opacity="1" fill-rule="nonzero"/><path fill="#10075e" d="M 411.816406 450.761719 C 411.449219 450.191406 402.882812 436.574219 403.371094 414.050781 C 405.128906 333.148438 446.019531 295.40625 480.003906 277.992188 C 516.609375 259.238281 552.257812 259.65625 553.765625 259.644531 L 559.011719 259.730469 L 559.394531 264.960938 C 559.480469 266.074219 561.304688 292.527344 551.257812 315.632812 C 545.988281 327.753906 539.992188 338.109375 535.535156 345.140625 L 559.007812 343.929688 L 555.808594 352.191406 C 554.589844 355.347656 524.9375 429.742188 443.75 443.347656 L 441.855469 432.023438 C 501.027344 422.105469 531.113281 375.546875 541.164062 356.34375 L 512.394531 357.835938 L 519.726562 348.03125 C 519.84375 347.875 531.605469 332.042969 540.730469 311.054688 C 547.078125 296.453125 548.050781 279.753906 548.082031 271.3125 C 537.007812 271.980469 510.859375 274.984375 484.863281 288.40625 C 439.710938 311.707031 416.15625 354.066406 414.847656 414.300781 C 414.441406 433.109375 421.421875 444.472656 421.492188 444.589844 L 411.816406 450.761719 " fill-opacity="1" fill-rule="nonzero"/><g clip-path="url(#483aa05c14)"><g clip-path="url(#48c4b6d7a9)"><g clip-path="url(#d9392f83dc)"><path fill="#5e17eb" d="M 718.84375 356.59375 C 718.808594 345.996094 717.949219 335.46875 716.265625 325.011719 C 708.851562 279.652344 686.335938 235.855469 649.207031 207.839844 C 637.992188 199.503906 625.984375 192.535156 613.183594 186.933594 C 595.679688 171.078125 576.480469 157.640625 555.59375 146.617188 C 544.765625 140.898438 533.621094 135.886719 522.160156 131.582031 C 510.695312 127.277344 499.003906 123.710938 487.089844 120.890625 C 475.171875 118.070312 463.125 116.011719 450.949219 114.71875 C 438.773438 113.425781 426.5625 112.910156 414.320312 113.167969 C 401.242188 113.554688 388.238281 114.746094 375.308594 116.738281 C 362.375 118.730469 349.617188 121.511719 337.027344 125.078125 C 324.4375 128.644531 312.117188 132.96875 300.0625 138.054688 C 288.007812 143.140625 276.3125 148.949219 264.972656 155.476562 C 249.222656 164.457031 234.332031 174.6875 220.300781 186.167969 C 206.269531 197.652344 193.296875 210.226562 181.382812 223.890625 C 165.027344 233.109375 149.226562 243.199219 133.980469 254.15625 C 143.667969 240.464844 154.257812 227.515625 165.757812 215.304688 C 177.253906 203.09375 189.542969 191.742188 202.628906 181.246094 C 212.597656 173.34375 222.96875 166.011719 233.742188 159.25 C 244.515625 152.488281 255.625 146.339844 267.078125 140.796875 C 278.527344 135.257812 290.246094 130.363281 302.234375 126.109375 C 314.222656 121.859375 326.40625 118.277344 338.789062 115.363281 C 350.761719 112.492188 362.855469 110.296875 375.070312 108.78125 C 387.285156 107.261719 399.550781 106.433594 411.859375 106.285156 C 424.167969 106.140625 436.445312 106.683594 448.695312 107.914062 C 460.945312 109.140625 473.085938 111.050781 485.121094 113.640625 C 485.332031 113.683594 485.539062 113.683594 485.75 113.644531 C 485.960938 113.605469 486.15625 113.527344 486.335938 113.410156 C 486.515625 113.292969 486.664062 113.144531 486.785156 112.964844 C 486.90625 112.789062 486.988281 112.597656 487.035156 112.386719 C 487.078125 112.175781 487.078125 111.964844 487.039062 111.753906 C 487 111.542969 486.921875 111.351562 486.804688 111.171875 C 486.683594 110.992188 486.539062 110.839844 486.359375 110.71875 C 486.183594 110.597656 485.992188 110.515625 485.78125 110.472656 C 473.136719 107.761719 460.378906 105.789062 447.507812 104.558594 C 434.632812 103.324219 421.734375 102.835938 408.804688 103.09375 C 395.875 103.355469 383.007812 104.359375 370.195312 106.109375 C 357.382812 107.859375 344.714844 110.339844 332.1875 113.558594 C 319.675781 116.707031 307.378906 120.535156 295.292969 125.046875 C 283.203125 129.558594 271.402344 134.71875 259.886719 140.535156 C 248.371094 146.351562 237.210938 152.785156 226.410156 159.835938 C 215.605469 166.886719 205.222656 174.511719 195.261719 182.710938 C 181.664062 194.011719 168.945312 206.234375 157.113281 219.371094 C 145.277344 232.507812 134.449219 246.429688 124.625 261.132812 C 112.851562 270.023438 101.414062 279.371094 90.464844 289.292969 C 88.027344 291.496094 91.882812 294.855469 94.296875 292.671875 C 101.453125 286.195312 108.855469 280.003906 116.382812 273.96875 C 112.109375 280.917969 108.054688 287.992188 104.214844 295.195312 C 98.363281 306.199219 93.050781 317.457031 88.277344 328.96875 C 83.503906 340.480469 79.292969 352.195312 75.648438 364.113281 C 72 376.03125 68.929688 388.09375 66.441406 400.308594 C 63.953125 412.519531 62.054688 424.820312 60.746094 437.214844 C 57.722656 466.539062 58.34375 496.441406 65.644531 525.121094 C 68.375 535.703125 71.953125 545.992188 76.371094 555.984375 C 80.792969 565.980469 86 575.546875 91.996094 584.6875 C 116.246094 621.890625 151.738281 650.847656 190.898438 671.25 C 201.050781 676.5 211.445312 681.214844 222.078125 685.402344 C 232.714844 689.585938 243.535156 693.21875 254.539062 696.296875 C 265.546875 699.375 276.679688 701.882812 287.941406 703.820312 C 299.207031 705.757812 310.539062 707.117188 321.941406 707.898438 C 345.933594 709.523438 369.871094 708.917969 393.75 706.089844 C 417.632812 703.257812 441.046875 698.25 463.996094 691.0625 C 472.953125 688.261719 481.804688 685.128906 490.550781 681.664062 C 494.441406 680.609375 498.316406 679.515625 502.164062 678.332031 C 514.347656 674.597656 526.296875 670.226562 538.015625 665.226562 C 549.738281 660.222656 561.160156 654.621094 572.289062 648.410156 C 583.417969 642.203125 594.1875 635.425781 604.597656 628.078125 C 615.007812 620.730469 625.003906 612.855469 634.582031 604.449219 C 673.214844 570.433594 704.515625 527.199219 717.953125 477.019531 C 720.496094 467.191406 722.425781 457.246094 723.742188 447.183594 C 725.058594 437.117188 725.757812 427.011719 725.832031 416.863281 C 725.90625 406.710938 725.359375 396.59375 724.191406 386.511719 C 723.019531 376.429688 721.238281 366.457031 718.84375 356.59375 Z M 490.277344 676.695312 C 478.476562 680.007812 466.53125 682.65625 454.4375 684.636719 C 442.34375 686.621094 430.179688 687.929688 417.941406 688.558594 C 405.703125 689.1875 393.464844 689.136719 381.234375 688.402344 C 369 687.671875 356.847656 686.261719 344.769531 684.175781 C 339.15625 683.144531 333.574219 681.953125 328.03125 680.59375 C 322.484375 679.238281 316.984375 677.71875 311.527344 676.035156 C 306.074219 674.355469 300.671875 672.515625 295.324219 670.515625 C 289.976562 668.515625 284.691406 666.363281 279.472656 664.054688 C 274.25 661.746094 269.101562 659.285156 264.027344 656.671875 C 258.949219 654.058594 253.957031 651.300781 249.042969 648.394531 C 244.128906 645.488281 239.304688 642.441406 234.566406 639.25 C 229.832031 636.0625 225.195312 632.734375 220.65625 629.273438 C 216.117188 625.8125 211.683594 622.21875 207.355469 618.496094 C 203.027344 614.773438 198.8125 610.925781 194.710938 606.957031 C 190.609375 602.984375 186.628906 598.898438 182.765625 594.695312 C 178.902344 590.488281 175.167969 586.175781 171.5625 581.75 C 167.953125 577.328125 164.480469 572.800781 161.136719 568.171875 C 157.796875 563.542969 154.59375 558.820312 151.527344 554.003906 C 148.464844 549.1875 145.542969 544.285156 142.769531 539.296875 C 139.992188 534.308594 137.363281 529.242188 134.886719 524.097656 C 129.9375 513.648438 125.734375 502.910156 122.265625 491.882812 C 118.800781 480.851562 116.109375 469.640625 114.191406 458.238281 C 112.273438 446.839844 111.144531 435.359375 110.808594 423.804688 C 110.476562 412.25 110.933594 400.726562 112.1875 389.234375 C 114.53125 368.417969 119.148438 348.117188 126.035156 328.335938 C 122.8125 338.773438 120.304688 349.378906 118.511719 360.15625 C 116.722656 370.933594 115.664062 381.78125 115.335938 392.699219 C 115.011719 403.621094 115.421875 414.511719 116.5625 425.375 C 117.707031 436.238281 119.578125 446.976562 122.167969 457.589844 C 133.34375 501.421875 158.027344 541.050781 190.394531 572.421875 C 198.617188 580.363281 207.289062 587.777344 216.414062 594.664062 C 225.535156 601.550781 235.042969 607.863281 244.929688 613.597656 C 254.820312 619.332031 265.019531 624.445312 275.527344 628.941406 C 286.039062 633.4375 296.78125 637.28125 307.757812 640.472656 C 355.582031 654.335938 406.765625 654.328125 455.210938 643.667969 C 467.75 640.847656 480.105469 637.367188 492.277344 633.230469 C 504.445312 629.089844 516.359375 624.3125 528.019531 618.898438 C 539.679688 613.488281 551.015625 607.46875 562.03125 600.84375 C 573.046875 594.21875 583.679688 587.027344 593.929688 579.269531 C 609.734375 567.488281 624.433594 554.460938 638.027344 540.183594 C 651.621094 525.910156 663.914062 510.589844 674.90625 494.226562 C 672.097656 501.8125 669 509.277344 665.601562 516.617188 C 660.648438 527.128906 655.109375 537.316406 648.984375 547.191406 C 642.855469 557.0625 636.183594 566.546875 628.964844 575.652344 C 621.746094 584.753906 614.027344 593.414062 605.8125 601.625 C 597.59375 609.839844 588.933594 617.554688 579.832031 624.773438 C 566.253906 635.570312 551.964844 645.316406 536.960938 654.019531 C 521.953125 662.71875 506.394531 670.277344 490.277344 676.691406 Z M 611.203125 191.78125 C 619.53125 199.441406 627.328125 207.613281 634.589844 216.289062 C 629.84375 211.96875 624.972656 207.792969 619.976562 203.769531 C 611.554688 197.003906 602.773438 190.691406 593.71875 184.789062 C 599.628906 186.890625 605.457031 189.222656 611.203125 191.78125 Z M 621.257812 211.171875 C 633 220.960938 643.933594 231.585938 654.046875 243.046875 C 655.917969 246.011719 657.742188 249.011719 659.484375 252.0625 C 665.027344 262.019531 669.925781 272.28125 674.183594 282.851562 C 678.441406 293.421875 682.023438 304.214844 684.933594 315.234375 C 687.839844 326.25 690.050781 337.40625 691.5625 348.699219 C 693.074219 359.996094 693.878906 371.339844 693.96875 382.734375 C 694.203125 397.980469 693.304688 413.164062 691.277344 428.277344 C 689.253906 443.394531 686.121094 458.277344 681.882812 472.925781 C 658.546875 514.53125 624.980469 550.328125 586.5625 578.375 C 576.40625 585.832031 565.882812 592.730469 554.992188 599.074219 C 544.101562 605.414062 532.910156 611.164062 521.410156 616.316406 C 509.910156 621.472656 498.171875 626.003906 486.191406 629.914062 C 474.210938 633.824219 462.058594 637.089844 449.734375 639.710938 C 401.996094 649.636719 351.699219 648.726562 304.9375 634.441406 C 294.21875 631.144531 283.738281 627.210938 273.496094 622.640625 C 263.253906 618.070312 253.328125 612.898438 243.710938 607.125 C 234.097656 601.347656 224.867188 595.015625 216.023438 588.121094 C 207.179688 581.226562 198.78125 573.820312 190.835938 565.90625 C 182.894531 558.117188 175.53125 549.8125 168.746094 540.996094 C 161.960938 532.179688 155.820312 522.9375 150.316406 513.269531 C 144.816406 503.597656 140.011719 493.59375 135.902344 483.257812 C 131.796875 472.917969 128.421875 462.347656 125.78125 451.539062 C 115.378906 406.890625 119.6875 359.460938 135.105469 316.484375 C 141.195312 299.535156 148.886719 283.351562 158.179688 267.925781 C 167.472656 252.503906 178.1875 238.136719 190.320312 224.832031 C 198.875 220.179688 207.53125 215.699219 216.332031 211.539062 C 238.484375 201.082031 261.246094 192.195312 284.625 184.886719 C 308.003906 177.578125 331.777344 171.910156 355.9375 167.890625 C 380.078125 163.835938 404.378906 161.507812 428.847656 160.910156 C 453.316406 160.308594 477.703125 161.441406 502.007812 164.308594 C 526.433594 167.183594 550.488281 171.941406 574.167969 178.582031 C 590.828125 188.054688 606.523438 198.917969 621.257812 211.171875 Z M 500.925781 158.917969 C 476.101562 156.074219 451.199219 155.015625 426.226562 155.746094 C 401.25 156.476562 376.453125 158.988281 351.839844 163.28125 C 327.199219 167.535156 302.976562 173.488281 279.171875 181.144531 C 255.371094 188.796875 232.21875 198.078125 209.714844 208.980469 C 207.085938 210.253906 204.503906 211.628906 201.898438 212.949219 C 205.199219 209.765625 208.558594 206.648438 212.027344 203.648438 C 249.394531 171.296875 295.894531 150.28125 344.222656 140.769531 C 353.039062 139.0625 361.90625 137.707031 370.828125 136.710938 C 379.746094 135.710938 388.695312 135.074219 397.667969 134.792969 C 406.640625 134.515625 415.609375 134.59375 424.578125 135.035156 C 433.542969 135.472656 442.476562 136.269531 451.378906 137.425781 C 460.285156 138.582031 469.125 140.09375 477.90625 141.960938 C 486.6875 143.824219 495.378906 146.039062 503.984375 148.601562 C 512.585938 151.164062 521.074219 154.070312 529.445312 157.3125 C 537.816406 160.554688 546.042969 164.128906 554.128906 168.03125 C 536.5625 164.011719 518.828125 160.972656 500.925781 158.917969 Z M 698.644531 374.796875 C 697.941406 355.957031 695.371094 337.378906 690.929688 319.058594 C 686.488281 300.738281 680.261719 283.042969 672.257812 265.976562 C 682.03125 279.503906 690.402344 293.851562 697.371094 309.015625 C 704.339844 324.175781 709.777344 339.871094 713.683594 356.097656 C 713.667969 364.492188 713.195312 372.859375 712.265625 381.203125 C 711.332031 389.542969 709.945312 397.8125 708.109375 406 C 706.269531 414.191406 703.988281 422.257812 701.265625 430.195312 C 698.542969 438.136719 695.394531 445.90625 691.816406 453.5 C 697.445312 427.550781 699.722656 401.3125 698.644531 374.78125 Z M 647.339844 213.019531 C 683.652344 241.203125 705.421875 284.859375 711.765625 329.894531 C 711.914062 330.949219 712.007812 332 712.136719 333.058594 C 710.867188 329.28125 709.542969 325.527344 708.109375 321.816406 C 702.222656 306.835938 695.074219 292.484375 686.660156 278.765625 C 678.246094 265.046875 668.695312 252.167969 658.011719 240.132812 C 648.613281 225.257812 637.78125 211.511719 625.523438 198.890625 C 633.171875 203.019531 640.445312 207.726562 647.339844 213.019531 Z M 274.726562 155.601562 C 286.035156 149.46875 297.683594 144.054688 309.667969 139.363281 C 321.648438 134.675781 333.875 130.746094 346.347656 127.574219 C 358.816406 124.398438 371.4375 122.011719 384.203125 120.40625 C 396.972656 118.800781 409.789062 117.988281 422.65625 117.976562 C 434.632812 118.070312 446.558594 118.917969 458.425781 120.523438 C 470.296875 122.125 482.015625 124.46875 493.589844 127.550781 C 505.164062 130.632812 516.496094 134.433594 527.589844 138.949219 C 538.683594 143.464844 549.449219 148.660156 559.886719 154.539062 C 573.660156 162.289062 586.675781 171.160156 598.925781 181.152344 C 591.488281 178.386719 583.957031 175.914062 576.339844 173.734375 C 575.839844 173.589844 575.335938 173.460938 574.832031 173.320312 C 565.863281 168.28125 556.6875 163.660156 547.300781 159.453125 C 537.914062 155.246094 528.355469 151.472656 518.625 148.136719 C 508.894531 144.796875 499.035156 141.90625 489.042969 139.460938 C 479.050781 137.019531 468.96875 135.03125 458.796875 133.503906 C 448.625 131.972656 438.40625 130.910156 428.136719 130.308594 C 417.871094 129.707031 407.59375 129.570312 397.3125 129.902344 C 387.03125 130.234375 376.789062 131.03125 366.578125 132.292969 C 356.371094 133.554688 346.242188 135.273438 336.1875 137.453125 C 320.226562 140.917969 304.65625 145.65625 289.46875 151.667969 C 274.28125 157.679688 259.6875 164.882812 245.675781 173.28125 C 255.050781 166.878906 264.730469 160.984375 274.726562 155.601562 Z M 316.128906 702.894531 C 304.988281 701.933594 293.925781 700.410156 282.9375 698.324219 C 271.953125 696.238281 261.101562 693.601562 250.382812 690.414062 C 239.664062 687.226562 229.136719 683.503906 218.796875 679.246094 C 208.457031 674.984375 198.359375 670.214844 188.503906 664.929688 C 150.195312 644.265625 115.757812 615.121094 92.726562 577.871094 C 86.945312 568.550781 81.984375 558.8125 77.847656 548.65625 C 73.710938 538.496094 70.453125 528.066406 68.078125 517.359375 C 61.59375 487.914062 62.070312 457.265625 65.945312 427.503906 C 69.101562 403.605469 74.441406 380.203125 81.960938 357.300781 C 89.484375 334.398438 99.0625 312.386719 110.691406 291.273438 C 115.253906 282.988281 120.117188 274.886719 125.28125 266.96875 C 140.1875 255.582031 155.683594 245.070312 171.773438 235.425781 C 165.875 242.878906 160.308594 250.597656 155.078125 258.578125 C 148.21875 268.898438 142.03125 279.609375 136.515625 290.707031 C 130.996094 301.804688 126.195312 313.203125 122.109375 324.90625 C 118.019531 336.605469 114.679688 348.515625 112.085938 360.632812 C 109.492188 372.753906 107.664062 384.984375 106.605469 397.332031 C 105.742188 408.949219 105.667969 420.574219 106.386719 432.199219 C 107.101562 443.824219 108.601562 455.351562 110.886719 466.773438 C 113.171875 478.195312 116.21875 489.410156 120.03125 500.417969 C 123.84375 511.425781 128.378906 522.125 133.644531 532.515625 C 136.300781 537.707031 139.105469 542.8125 142.058594 547.835938 C 145.015625 552.859375 148.117188 557.789062 151.363281 562.628906 C 154.609375 567.46875 157.996094 572.210938 161.523438 576.847656 C 165.046875 581.488281 168.707031 586.019531 172.503906 590.445312 C 176.296875 594.867188 180.21875 599.175781 184.265625 603.371094 C 188.316406 607.5625 192.484375 611.632812 196.773438 615.578125 C 201.0625 619.523438 205.460938 623.339844 209.976562 627.027344 C 214.488281 630.710938 219.109375 634.261719 223.832031 637.675781 C 228.554688 641.089844 233.375 644.363281 238.292969 647.492188 C 243.210938 650.621094 248.214844 653.601562 253.308594 656.433594 C 258.398438 659.269531 263.570312 661.949219 268.824219 664.476562 C 274.074219 667.003906 279.394531 669.375 284.785156 671.589844 C 290.179688 673.804688 295.628906 675.855469 301.140625 677.75 C 306.652344 679.640625 312.21875 681.367188 317.832031 682.929688 C 323.445312 684.496094 329.101562 685.890625 334.796875 687.121094 C 340.496094 688.351562 346.222656 689.410156 351.984375 690.300781 C 368.40625 692.746094 384.917969 693.941406 401.523438 693.886719 C 418.125 693.835938 434.632812 692.535156 451.039062 689.988281 C 429.121094 696.160156 406.828125 700.328125 384.164062 702.496094 C 361.496094 704.664062 338.820312 704.796875 316.128906 702.894531 Z M 711.097656 483.226562 C 696.242188 532.058594 663.75 573.851562 624.980469 606.300781 C 610.835938 618.109375 595.867188 628.761719 580.070312 638.253906 C 564.277344 647.742188 547.847656 655.964844 530.78125 662.910156 C 551.503906 651.734375 570.890625 638.578125 588.933594 623.453125 C 598.011719 615.894531 606.625 607.835938 614.773438 599.28125 C 622.917969 590.722656 630.539062 581.722656 637.644531 572.28125 C 644.746094 562.84375 651.277344 553.023438 657.242188 542.824219 C 663.203125 532.625 668.558594 522.117188 673.304688 511.296875 C 678.253906 499.808594 682.496094 488.0625 686.027344 476.058594 C 688.019531 472.539062 689.957031 468.996094 691.800781 465.398438 C 698.902344 451.695312 704.652344 437.449219 709.050781 422.652344 C 713.445312 407.859375 716.410156 392.78125 717.941406 377.425781 C 719.359375 386.230469 720.277344 395.085938 720.703125 403.996094 C 721.125 412.90625 721.050781 421.808594 720.476562 430.710938 C 719.898438 439.609375 718.828125 448.453125 717.261719 457.230469 C 715.695312 466.011719 713.640625 474.679688 711.105469 483.226562 Z M 711.097656 483.226562 " fill-opacity="1" fill-rule="nonzero"/></g></g></g></svg>