<svg xmlns="http://www.w3.org/2000/svg" xmlns:xlink="http://www.w3.org/1999/xlink" width="1080" zoomAndPan="magnify" viewBox="0 0 810 809.999993" height="1080" preserveAspectRatio="xMidYMid meet" version="1.0"><defs><clipPath id="5d35d4ec85"><path d="M 202.933594 211.015625 L 607.183594 211.015625 L 607.183594 598.765625 L 202.933594 598.765625 Z M 202.933594 211.015625 " clip-rule="nonzero"/></clipPath><clipPath id="f97366f67e"><path d="M 68 96 L 724 96 L 724 728 L 68 728 Z M 68 96 " clip-rule="nonzero"/></clipPath><clipPath id="f73f923e17"><path d="M -43.757812 271.554688 L 568.136719 -13.417969 L 825.246094 538.648438 L 213.351562 823.621094 Z M -43.757812 271.554688 " clip-rule="nonzero"/></clipPath><clipPath id="3e1a1fc01e"><path d="M -43.757812 271.554688 L 568.136719 -13.417969 L 825.246094 538.648438 L 213.351562 823.621094 Z M -43.757812 271.554688 " clip-rule="nonzero"/></clipPath></defs><g clip-path="url(#5d35d4ec85)"><rect x="-81" width="972" fill="#ffffff" y="-80.999999" height="971.999992" fill-opacity="1"/></g><path fill="#725bff" d="M 375.484375 371.621094 C 375.484375 412.023438 408.234375 444.773438 448.636719 444.773438 C 489.042969 444.773438 521.792969 412.023438 521.792969 371.621094 C 521.792969 331.21875 489.042969 298.46875 448.636719 298.46875 C 408.234375 298.46875 375.484375 331.21875 375.484375 371.621094 " fill-opacity="1" fill-rule="nonzero"/><path fill="#725bff" d="M 293.554688 579.375 L 264.292969 579.375 L 264.292969 485.738281 L 293.554688 485.738281 L 293.554688 579.375 " fill-opacity="1" fill-rule="nonzero"/><path stroke-linecap="butt" transform="matrix(0.585221, 0, 0, -0.585221, -1263.134453, 883.689936)" fill="none" stroke-linejoin="round" d="M 2953.291812 627.49097 L 3076.368883 644.585193 C 3092.989193 646.888007 3107.787277 633.631807 3107.09977 616.671081 C 3106.839452 610.490194 3102.527516 605.15701 3096.687045 603.121189 L 2889.947737 530.85955 C 2882.058096 528.489987 2873.741266 527.949327 2865.611331 529.270942 L 2662.836867 560.001829 L 2660.000067 560.001829 " stroke="#262728" stroke-width="20" stroke-opacity="1" stroke-miterlimit="10"/><path stroke-linecap="butt" transform="matrix(0.585221, 0, 0, -0.585221, -1263.134453, 883.689936)" fill="none" stroke-linejoin="round" d="M 2820.002262 620.001818 L 2936.911795 620.001818 C 2944.948283 620.001818 2952.637679 626.509771 2953.19169 634.532909 C 2954.907119 659.343227 2935.289813 680.001806 2910.846609 680.001806 L 2846.801678 680.001806 C 2823.299624 680.001806 2806.772761 685.802228 2787.182154 695.647593 C 2767.578198 705.499632 2746.512455 710.946288 2713.298533 709.998463 C 2678.309108 708.99724 2658.297987 685.001249 2648.299102 685.001249 " stroke="#262728" stroke-width="20" stroke-opacity="1" stroke-miterlimit="10"/><path stroke-linecap="butt" transform="matrix(0.585221, 0, 0, -0.585221, -1263.134453, 883.689936)" fill="none" stroke-linejoin="round" d="M 2650.001182 550.002944 L 2600.000079 550.002944 L 2600.000079 709.998463 L 2650.001182 709.998463 Z M 2650.001182 550.002944 " stroke="#262728" stroke-width="20" stroke-opacity="1" stroke-miterlimit="10"/><path stroke-linecap="butt" transform="matrix(0.585221, 0, 0, -0.585221, -1263.134453, 883.689936)" fill="none" stroke-linejoin="round" d="M 2729.998941 894.997871 C 2729.998941 798.353102 2808.34802 719.997349 2904.999464 719.997349 C 3001.650908 719.997349 3079.999987 798.353102 3079.999987 894.997871 C 3079.999987 991.649316 3001.650908 1069.998394 2904.999464 1069.998394 C 2808.34802 1069.998394 2729.998941 991.649316 2729.998941 894.997871 Z M 2729.998941 894.997871 " stroke="#262728" stroke-width="20" stroke-opacity="1" stroke-miterlimit="10"/><path stroke-linecap="butt" transform="matrix(0.585221, 0, 0, -0.585221, -1263.134453, 883.689936)" fill="none" stroke-linejoin="round" d="M 2780.000044 894.997871 C 2780.000044 825.960172 2835.961765 769.998452 2904.999464 769.998452 C 2974.037164 769.998452 3029.998884 825.960172 3029.998884 894.997871 C 3029.998884 964.042246 2974.037164 1019.997291 2904.999464 1019.997291 C 2835.961765 1019.997291 2780.000044 964.042246 2780.000044 894.997871 Z M 2780.000044 894.997871 " stroke="#262728" stroke-width="20" stroke-opacity="1" stroke-miterlimit="10"/><path stroke-linecap="butt" transform="matrix(0.585221, 0, 0, -0.585221, -1263.134453, 883.689936)" fill="none" stroke-linejoin="round" d="M 2900.000021 1069.998394 L 2900.000021 1019.997291 " stroke="#262728" stroke-width="20" stroke-opacity="1" stroke-miterlimit="10"/><path stroke-linecap="butt" transform="matrix(0.585221, 0, 0, -0.585221, -1263.134453, 883.689936)" fill="none" stroke-linejoin="round" d="M 2900.000021 769.998452 L 2900.000021 719.997349 " stroke="#262728" stroke-width="20" stroke-opacity="1" stroke-miterlimit="10"/><path stroke-linecap="butt" transform="matrix(0.585221, 0, 0, -0.585221, -1263.134453, 883.689936)" fill="none" stroke-linejoin="round" d="M 2729.998941 889.998428 L 2780.000044 889.998428 " stroke="#262728" stroke-width="20" stroke-opacity="1" stroke-miterlimit="10"/><path stroke-linecap="butt" transform="matrix(0.585221, 0, 0, -0.585221, -1263.134453, 883.689936)" fill="none" stroke-linejoin="round" d="M 3029.998884 889.998428 L 3079.999987 889.998428 " stroke="#262728" stroke-width="20" stroke-opacity="1" stroke-miterlimit="10"/><path stroke-linecap="butt" transform="matrix(0.585221, 0, 0, -0.585221, -1263.134453, 883.689936)" fill="none" stroke-linejoin="round" d="M 2778.758527 1018.742424 L 2814.108392 983.392559 " stroke="#262728" stroke-width="20" stroke-opacity="1" stroke-miterlimit="10"/><path stroke-linecap="butt" transform="matrix(0.585221, 0, 0, -0.585221, -1263.134453, 883.689936)" fill="none" stroke-linejoin="round" d="M 2990.891093 806.609858 L 3026.240958 771.259993 " stroke="#262728" stroke-width="20" stroke-opacity="1" stroke-miterlimit="10"/><path stroke-linecap="butt" transform="matrix(0.585221, 0, 0, -0.585221, -1263.134453, 883.689936)" fill="none" stroke-linejoin="round" d="M 2778.758527 771.259993 L 2814.108392 806.609858 " stroke="#262728" stroke-width="20" stroke-opacity="1" stroke-miterlimit="10"/><path stroke-linecap="butt" transform="matrix(0.585221, 0, 0, -0.585221, -1263.134453, 883.689936)" fill="none" stroke-linejoin="round" d="M 2990.891093 983.392559 L 3026.240958 1018.742424 " stroke="#262728" stroke-width="20" stroke-opacity="1" stroke-miterlimit="10"/><path fill="#ffffff" d="M 437.277344 392.386719 C 433.785156 392.386719 430.460938 391.839844 427.289062 390.753906 C 424.125 389.65625 421.371094 388.125 419.019531 386.164062 C 416.679688 384.195312 414.957031 381.9375 413.871094 379.367188 C 413.320312 378.222656 413.339844 377.15625 413.90625 376.175781 C 414.480469 375.191406 415.449219 374.570312 416.820312 374.296875 C 417.792969 374.078125 418.761719 374.226562 419.722656 374.746094 C 420.675781 375.265625 421.402344 376.042969 421.894531 377.082031 C 422.542969 378.445312 423.625 379.699219 425.117188 380.84375 C 426.621094 381.984375 428.4375 382.921875 430.566406 383.628906 C 432.691406 384.339844 434.933594 384.6875 437.277344 384.6875 C 439.902344 384.6875 442.3125 384.277344 444.523438 383.460938 C 446.738281 382.648438 448.515625 381.457031 449.886719 379.902344 C 451.25 378.34375 451.933594 376.417969 451.933594 374.132812 C 451.933594 371.242188 450.796875 368.648438 448.53125 366.359375 C 446.269531 364.066406 442.546875 362.644531 437.359375 362.101562 C 430.597656 361.445312 425.277344 359.453125 421.402344 356.125 C 417.527344 352.792969 415.585938 348.675781 415.585938 343.761719 C 415.585938 340.160156 416.589844 337.105469 418.617188 334.59375 C 420.636719 332.085938 423.378906 330.175781 426.839844 328.867188 C 430.304688 327.558594 434.164062 326.898438 438.425781 326.898438 C 441.75 326.898438 444.660156 327.367188 447.140625 328.296875 C 449.628906 329.222656 451.792969 330.503906 453.648438 332.140625 C 455.503906 333.773438 457.113281 335.710938 458.480469 337.953125 C 459.238281 339.152344 459.550781 340.28125 459.425781 341.347656 C 459.285156 342.414062 458.75 343.246094 457.820312 343.847656 C 456.789062 344.496094 455.667969 344.636719 454.46875 344.25 C 453.265625 343.875 452.367188 343.167969 451.761719 342.128906 C 450.898438 340.539062 449.828125 339.207031 448.574219 338.109375 C 447.316406 337.023438 445.839844 336.164062 444.148438 335.535156 C 442.457031 334.910156 440.46875 334.59375 438.179688 334.59375 C 434.136719 334.542969 430.753906 335.289062 428.027344 336.847656 C 425.300781 338.398438 423.9375 340.785156 423.9375 344.011719 C 423.9375 345.644531 424.363281 347.21875 425.207031 348.714844 C 426.054688 350.21875 427.605469 351.511719 429.871094 352.601562 C 432.136719 353.699219 435.394531 354.457031 439.65625 354.894531 C 446.144531 355.550781 451.207031 357.53125 454.839844 360.828125 C 458.464844 364.136719 460.277344 368.484375 460.277344 373.886719 C 460.277344 377 459.640625 379.699219 458.351562 381.984375 C 457.070312 384.277344 455.351562 386.203125 453.195312 387.761719 C 451.042969 389.3125 448.585938 390.476562 445.828125 391.238281 C 443.078125 392 440.226562 392.386719 437.277344 392.386719 " fill-opacity="1" fill-rule="nonzero"/><path stroke-linecap="butt" transform="matrix(0.585221, 0, 0, -0.585221, -1263.134453, 883.689936)" fill="none" stroke-linejoin="miter" d="M 2905.586849 839.516738 C 2899.619556 839.516738 2893.939282 840.451214 2888.519325 842.306815 C 2883.112718 844.18244 2878.406967 846.798971 2874.388723 850.149732 C 2870.390504 853.513843 2867.446907 857.371891 2865.591306 861.763925 C 2864.650156 863.719648 2864.68353 865.541875 2865.651379 867.217256 C 2866.632579 868.899311 2868.287935 869.960608 2870.630798 870.427846 C 2872.292829 870.801636 2873.948185 870.547993 2875.590192 869.660241 C 2877.218849 868.77249 2878.460366 867.4442 2879.301394 865.668697 C 2880.409414 863.339183 2882.25834 861.196565 2884.808123 859.240842 C 2887.37793 857.291793 2890.481723 855.689836 2894.119502 854.481693 C 2897.750606 853.266875 2901.581954 852.672815 2905.586849 852.672815 C 2910.07233 852.672815 2914.190696 853.373672 2917.968646 854.76871 C 2921.753271 856.157073 2924.790316 858.192894 2927.133179 860.849474 C 2929.462692 863.512729 2930.630786 866.803417 2930.630786 870.708189 C 2930.630786 875.647558 2928.688413 880.079641 2924.817015 883.991087 C 2920.952292 887.909209 2914.591185 890.338844 2905.72702 891.266645 C 2894.1729 892.388015 2885.081791 895.792175 2878.460366 901.479125 C 2871.838941 907.172749 2868.521554 914.208013 2868.521554 922.604941 C 2868.521554 928.759129 2870.236983 933.978841 2873.701217 938.270752 C 2877.1521 942.555989 2881.837826 945.819977 2887.75172 948.056043 C 2893.672289 950.292109 2900.267014 951.420154 2907.549247 951.420154 C 2913.229521 951.420154 2918.202265 950.619176 2922.440778 949.030568 C 2926.69264 947.448634 2930.390493 945.259292 2933.561034 942.462541 C 2936.731575 939.672465 2939.481602 936.361753 2941.81779 932.530404 C 2943.112706 930.481233 2943.646692 928.552209 2943.433098 926.729982 C 2943.192804 924.907755 2942.278353 923.486018 2940.689745 922.458095 C 2938.927592 921.350074 2937.011918 921.109781 2934.962747 921.770588 C 2932.906901 922.411371 2931.371692 923.619514 2930.337094 925.395018 C 2928.861958 928.111671 2927.033056 930.387785 2924.890438 932.263411 C 2922.741145 934.119012 2920.218062 935.587473 2917.327863 936.66212 C 2914.437664 937.730091 2911.040179 938.270752 2907.128733 938.270752 C 2900.22029 938.357525 2894.439893 937.082633 2889.780866 934.419379 C 2885.12184 931.769474 2882.792326 927.691157 2882.792326 922.177753 C 2882.792326 919.387676 2883.519882 916.697722 2884.961644 914.141265 C 2886.410081 911.571458 2889.059986 909.362091 2892.931383 907.499816 C 2896.802781 905.62419 2902.369584 904.329275 2909.651816 903.581694 C 2920.738698 902.460324 2929.389269 899.076188 2935.596855 893.442637 C 2941.791091 887.789062 2944.888209 880.359983 2944.888209 871.128702 C 2944.888209 865.808868 2943.800213 861.196565 2941.597521 857.291793 C 2939.408179 853.373672 2936.471257 850.082984 2932.786754 847.419729 C 2929.108927 844.769824 2924.910463 842.780727 2920.198037 841.479136 C 2915.498961 840.177546 2910.62634 839.516738 2905.586849 839.516738 Z M 2905.586849 839.516738 " stroke="#ffffff" stroke-width="5" stroke-opacity="1" stroke-miterlimit="10"/><path stroke-linecap="butt" transform="matrix(0.585221, 0, 0, -0.585221, -1263.134453, 883.689936)" fill="none" stroke-linejoin="miter" d="M 2900.000021 980.001749 L 2900.000021 949.998417 " stroke="#ffffff" stroke-width="15" stroke-opacity="1" stroke-miterlimit="10"/><path stroke-linecap="butt" transform="matrix(0.585221, 0, 0, -0.585221, -1263.134453, 883.689936)" fill="none" stroke-linejoin="miter" d="M 2900.000021 839.997326 L 2900.000021 810.000669 " stroke="#ffffff" stroke-width="15" stroke-opacity="1" stroke-miterlimit="10"/><g clip-path="url(#f97366f67e)"><g clip-path="url(#f73f923e17)"><g clip-path="url(#3e1a1fc01e)"><path fill="#5e17eb" d="M 678.683594 240.429688 C 674.796875 230.574219 670.160156 221.085938 664.78125 211.957031 C 641.359375 172.410156 604.4375 139.824219 559.65625 127.253906 C 546.179688 123.574219 532.457031 121.453125 518.496094 120.902344 C 496.417969 112.511719 473.644531 106.984375 450.179688 104.328125 C 438.011719 102.945312 425.804688 102.335938 413.5625 102.5 C 401.316406 102.664062 389.132812 103.601562 377.007812 105.316406 C 364.882812 107.027344 352.914062 109.5 341.101562 112.730469 C 329.292969 115.960938 317.730469 119.925781 306.421875 124.621094 C 294.386719 129.746094 282.707031 135.589844 271.390625 142.15625 C 260.070312 148.722656 249.199219 155.957031 238.777344 163.863281 C 228.351562 171.769531 218.449219 180.285156 209.074219 189.410156 C 199.699219 198.539062 190.921875 208.207031 182.742188 218.417969 C 171.339844 232.515625 161.199219 247.464844 152.3125 263.269531 C 143.429688 279.074219 135.925781 295.507812 129.804688 312.574219 C 117.929688 327.117188 106.886719 342.265625 96.679688 358.023438 C 100.714844 341.746094 105.863281 325.824219 112.125 310.265625 C 118.386719 294.707031 125.699219 279.660156 134.0625 265.121094 C 140.46875 254.132812 147.457031 243.527344 155.027344 233.304688 C 162.597656 223.082031 170.707031 213.308594 179.355469 203.976562 C 188 194.648438 197.132812 185.820312 206.746094 177.496094 C 216.363281 169.167969 226.410156 161.394531 236.878906 154.175781 C 246.984375 147.140625 257.445312 140.691406 268.269531 134.832031 C 279.097656 128.96875 290.214844 123.730469 301.625 119.109375 C 313.035156 114.492188 324.667969 110.527344 336.523438 107.210938 C 348.378906 103.894531 360.382812 101.25 372.535156 99.277344 C 372.746094 99.242188 372.941406 99.167969 373.125 99.054688 C 373.304688 98.941406 373.457031 98.796875 373.582031 98.621094 C 373.707031 98.445312 373.792969 98.253906 373.839844 98.046875 C 373.886719 97.835938 373.894531 97.625 373.859375 97.414062 C 373.824219 97.203125 373.746094 97.007812 373.632812 96.824219 C 373.519531 96.644531 373.375 96.492188 373.203125 96.367188 C 373.027344 96.242188 372.835938 96.15625 372.625 96.109375 C 372.417969 96.058594 372.207031 96.054688 371.996094 96.089844 C 359.234375 98.167969 346.632812 100.980469 334.195312 104.519531 C 321.757812 108.054688 309.566406 112.300781 297.617188 117.25 C 285.671875 122.199219 274.050781 127.824219 262.757812 134.117188 C 251.460938 140.414062 240.566406 147.339844 230.074219 154.898438 C 219.570312 162.386719 209.507812 170.429688 199.894531 179.035156 C 190.28125 187.636719 181.167969 196.742188 172.5625 206.351562 C 163.957031 215.960938 155.90625 226.019531 148.410156 236.519531 C 140.917969 247.019531 134.023438 257.902344 127.734375 269.164062 C 119.183594 284.644531 111.792969 300.65625 105.554688 317.203125 C 99.316406 333.75 94.300781 350.65625 90.503906 367.925781 C 82.777344 380.496094 75.53125 393.367188 68.949219 406.59375 C 67.480469 409.535156 72.296875 411.257812 73.75 408.34375 C 78.054688 399.707031 82.691406 391.246094 87.503906 382.886719 C 86.054688 390.910156 84.855469 398.976562 83.90625 407.082031 C 82.460938 419.460938 81.613281 431.882812 81.359375 444.34375 C 81.105469 456.804688 81.453125 469.246094 82.394531 481.671875 C 83.339844 494.101562 84.875 506.453125 87.003906 518.734375 C 89.132812 531.015625 91.84375 543.164062 95.140625 555.183594 C 103.003906 583.59375 114.472656 611.214844 131.714844 635.265625 C 138.113281 644.128906 145.191406 652.40625 152.949219 660.105469 C 160.703125 667.804688 169.039062 674.816406 177.949219 681.144531 C 214.082031 706.964844 257.683594 721.007812 301.585938 725.746094 C 312.953125 726.9375 324.351562 727.546875 335.777344 727.570312 C 347.207031 727.59375 358.605469 727.035156 369.976562 725.894531 C 381.347656 724.753906 392.632812 723.035156 403.828125 720.738281 C 415.023438 718.441406 426.070312 715.582031 436.972656 712.152344 C 459.910156 704.929688 481.984375 695.652344 503.195312 684.320312 C 524.40625 672.984375 544.390625 659.792969 563.144531 644.742188 C 570.46875 638.871094 577.570312 632.730469 584.453125 626.316406 C 587.691406 623.921875 590.902344 621.488281 594.054688 618.988281 C 604.039062 611.070312 613.578125 602.648438 622.671875 593.722656 C 631.765625 584.796875 640.367188 575.417969 648.46875 565.582031 C 656.570312 555.746094 664.132812 545.511719 671.152344 534.878906 C 678.175781 524.246094 684.613281 513.269531 690.476562 501.953125 C 714.066406 456.203125 727.46875 404.542969 721.714844 352.914062 C 720.5 342.835938 718.675781 332.871094 716.238281 323.015625 C 713.800781 313.164062 710.769531 303.496094 707.140625 294.015625 C 703.515625 284.535156 699.320312 275.3125 694.558594 266.347656 C 689.800781 257.382812 684.507812 248.746094 678.683594 240.429688 Z M 582.386719 621.789062 C 572.605469 629.171875 562.445312 635.988281 551.902344 642.238281 C 541.363281 648.492188 530.507812 654.140625 519.339844 659.183594 C 508.171875 664.226562 496.757812 668.632812 485.097656 672.40625 C 473.4375 676.179688 461.605469 679.292969 449.597656 681.75 C 443.992188 682.835938 438.363281 683.753906 432.703125 684.507812 C 427.042969 685.265625 421.367188 685.851562 415.675781 686.273438 C 409.980469 686.695312 404.28125 686.949219 398.574219 687.035156 C 392.863281 687.121094 387.160156 687.039062 381.457031 686.789062 C 375.753906 686.539062 370.0625 686.121094 364.382812 685.539062 C 358.703125 684.953125 353.046875 684.203125 347.410156 683.285156 C 341.777344 682.371094 336.175781 681.289062 330.601562 680.042969 C 325.03125 678.796875 319.5 677.386719 314.011719 675.816406 C 308.523438 674.246094 303.085938 672.511719 297.699219 670.621094 C 292.316406 668.730469 286.988281 666.683594 281.722656 664.480469 C 276.457031 662.277344 271.257812 659.917969 266.132812 657.410156 C 261.003906 654.898438 255.953125 652.242188 250.984375 649.433594 C 246.011719 646.628906 241.125 643.679688 236.328125 640.585938 C 231.53125 637.492188 226.828125 634.257812 222.21875 630.890625 C 217.613281 627.519531 213.105469 624.015625 208.703125 620.382812 C 204.300781 616.746094 200.011719 612.984375 195.832031 609.097656 C 187.417969 601.167969 179.589844 592.699219 172.34375 583.691406 C 165.101562 574.679688 158.507812 565.21875 152.570312 555.296875 C 146.632812 545.378906 141.402344 535.101562 136.882812 524.460938 C 132.363281 513.820312 128.59375 502.917969 125.578125 491.757812 C 120.179688 471.519531 117.085938 450.933594 116.292969 430.003906 C 117.09375 440.898438 118.621094 451.6875 120.878906 462.378906 C 123.132812 473.066406 126.097656 483.554688 129.773438 493.84375 C 133.445312 504.132812 137.792969 514.125 142.8125 523.828125 C 147.835938 533.527344 153.484375 542.847656 159.765625 551.789062 C 186.136719 588.542969 223.558594 616.460938 265.125 633.890625 C 275.675781 638.289062 286.453125 642.035156 297.457031 645.128906 C 308.460938 648.222656 319.613281 650.636719 330.910156 652.375 C 342.207031 654.113281 353.570312 655.164062 364.996094 655.523438 C 376.421875 655.882812 387.824219 655.550781 399.210938 654.527344 C 448.800781 650.019531 496.464844 631.371094 537.703125 603.804688 C 548.355469 596.609375 558.59375 588.867188 568.421875 580.582031 C 578.246094 572.292969 587.605469 563.507812 596.492188 554.21875 C 605.378906 544.933594 613.746094 535.199219 621.59375 525.015625 C 629.441406 514.835938 636.722656 504.265625 643.441406 493.308594 C 653.871094 476.578125 662.816406 459.09375 670.277344 440.847656 C 677.738281 422.601562 683.609375 403.859375 687.886719 384.617188 C 688.035156 392.703125 687.867188 400.78125 687.378906 408.855469 C 686.59375 420.449219 685.144531 431.957031 683.035156 443.382812 C 680.921875 454.804688 678.164062 466.070312 674.753906 477.179688 C 671.347656 488.285156 667.3125 499.160156 662.652344 509.800781 C 657.992188 520.445312 652.734375 530.785156 646.882812 540.820312 C 638.171875 555.820312 628.414062 570.101562 617.605469 583.671875 C 606.800781 597.238281 595.058594 609.945312 582.390625 621.789062 Z M 518.417969 126.136719 C 528.964844 130.238281 539.199219 135.007812 549.121094 140.445312 C 543.128906 138.148438 537.070312 136.035156 530.953125 134.105469 C 520.644531 130.875 510.167969 128.191406 499.585938 125.992188 C 505.855469 125.796875 512.128906 125.847656 518.417969 126.136719 Z M 534.84375 140.535156 C 549.34375 145.375 563.390625 151.289062 576.988281 158.28125 C 579.8125 160.359375 582.601562 162.488281 585.335938 164.695312 C 594.121094 171.953125 602.421875 179.726562 610.238281 188.019531 C 618.050781 196.3125 625.320312 205.058594 632.039062 214.261719 C 638.761719 223.464844 644.882812 233.050781 650.402344 243.015625 C 655.925781 252.984375 660.804688 263.257812 665.039062 273.835938 C 670.808594 287.953125 675.503906 302.417969 679.121094 317.234375 C 682.738281 332.046875 685.242188 347.046875 686.628906 362.234375 C 680.046875 409.484375 661.824219 455.046875 636.257812 495.15625 C 629.511719 505.800781 622.222656 516.058594 614.390625 525.929688 C 606.558594 535.804688 598.226562 545.234375 589.394531 554.222656 C 580.5625 563.210938 571.28125 571.707031 561.546875 579.710938 C 551.8125 587.714844 541.683594 595.183594 531.160156 602.113281 C 490.316406 628.742188 443.140625 646.210938 394.386719 649.933594 C 383.203125 650.765625 372.011719 650.921875 360.808594 650.394531 C 349.605469 649.867188 338.476562 648.667969 327.417969 646.789062 C 316.363281 644.914062 305.460938 642.375 294.710938 639.175781 C 283.960938 635.976562 273.445312 632.136719 263.164062 627.660156 C 252.929688 623.296875 243.050781 618.242188 233.519531 612.503906 C 223.988281 606.765625 214.902344 600.394531 206.257812 593.390625 C 197.613281 586.390625 189.496094 578.824219 181.90625 570.691406 C 174.3125 562.558594 167.320312 553.941406 160.925781 544.835938 C 134.976562 507.042969 121.71875 461.300781 120.425781 415.660156 C 119.925781 397.660156 121.191406 379.785156 124.230469 362.035156 C 127.269531 344.285156 132.015625 327.007812 138.472656 310.195312 C 144.742188 302.746094 151.175781 295.421875 157.855469 288.34375 C 174.675781 270.535156 192.640625 253.972656 211.753906 238.648438 C 230.867188 223.328125 250.941406 209.394531 271.980469 196.847656 C 292.984375 184.28125 314.769531 173.265625 337.339844 163.796875 C 359.90625 154.328125 383.035156 146.5 406.714844 140.320312 C 430.507812 134.101562 454.644531 129.769531 479.117188 127.332031 C 498.082031 130.085938 516.65625 134.488281 534.84375 140.535156 Z M 403.742188 135.691406 C 379.585938 142.082031 356.011719 150.167969 333.015625 159.941406 C 310.023438 169.71875 287.84375 181.085938 266.480469 194.046875 C 245.085938 206.984375 224.695312 221.351562 205.3125 237.148438 C 185.929688 252.945312 167.746094 270.019531 150.761719 288.371094 C 148.773438 290.511719 146.871094 292.730469 144.925781 294.914062 C 146.84375 290.746094 148.835938 286.617188 150.972656 282.558594 C 173.992188 238.824219 209.644531 202.316406 251.191406 175.855469 C 258.777344 171.054688 266.542969 166.566406 274.488281 162.386719 C 282.4375 158.210938 290.535156 154.355469 298.789062 150.828125 C 307.046875 147.300781 315.429688 144.109375 323.9375 141.25 C 332.449219 138.394531 341.0625 135.886719 349.773438 133.71875 C 358.484375 131.554688 367.269531 129.742188 376.128906 128.28125 C 384.984375 126.820312 393.886719 125.71875 402.835938 124.972656 C 411.78125 124.222656 420.742188 123.835938 429.71875 123.808594 C 438.695312 123.78125 447.660156 124.113281 456.609375 124.804688 C 438.785156 127.457031 421.164062 131.085938 403.742188 135.691406 Z M 666.5 264.738281 C 658.988281 247.449219 649.828125 231.082031 639.019531 215.640625 C 628.207031 200.195312 615.96875 185.984375 602.296875 173.003906 C 616.324219 182.042969 629.347656 192.355469 641.359375 203.941406 C 653.375 215.523438 664.152344 228.160156 673.699219 241.847656 C 676.742188 249.671875 679.351562 257.636719 681.519531 265.746094 C 683.691406 273.855469 685.410156 282.058594 686.679688 290.355469 C 687.949219 298.652344 688.765625 306.996094 689.121094 315.382812 C 689.476562 323.769531 689.371094 332.148438 688.808594 340.523438 C 684.597656 314.308594 677.160156 289.042969 666.496094 264.726562 Z M 559.804688 132.757812 C 603.890625 145.78125 640.058594 178.511719 662.371094 218.144531 C 662.890625 219.074219 663.363281 220.019531 663.867188 220.953125 C 661.308594 217.902344 658.710938 214.882812 656.023438 211.953125 C 645.085938 200.140625 633.203125 189.382812 620.367188 179.667969 C 607.535156 169.953125 593.953125 161.4375 579.617188 154.121094 C 565.445312 143.691406 550.355469 134.832031 534.339844 127.546875 C 542.96875 128.601562 551.457031 130.339844 559.804688 132.757812 Z M 191.867188 214.980469 C 200.167969 205.148438 209.042969 195.863281 218.496094 187.132812 C 227.949219 178.402344 237.90625 170.289062 248.363281 162.792969 C 258.824219 155.296875 269.707031 148.476562 281.011719 142.332031 C 292.316406 136.1875 303.960938 130.765625 315.9375 126.0625 C 327.128906 121.792969 338.542969 118.238281 350.179688 115.410156 C 361.816406 112.578125 373.585938 110.492188 385.488281 109.148438 C 397.390625 107.808594 409.328125 107.21875 421.304688 107.382812 C 433.28125 107.550781 445.199219 108.46875 457.058594 110.140625 C 472.710938 112.34375 488.0625 115.867188 503.109375 120.710938 C 495.175781 120.84375 487.261719 121.28125 479.375 122.023438 C 478.855469 122.074219 478.339844 122.140625 477.816406 122.191406 C 467.628906 120.761719 457.398438 119.800781 447.125 119.300781 C 436.851562 118.800781 426.578125 118.769531 416.300781 119.203125 C 406.023438 119.636719 395.785156 120.535156 385.589844 121.898438 C 375.394531 123.261719 365.28125 125.082031 355.253906 127.363281 C 345.222656 129.644531 335.316406 132.375 325.535156 135.554688 C 315.75 138.734375 306.132812 142.351562 296.679688 146.402344 C 287.226562 150.457031 277.972656 154.925781 268.925781 159.820312 C 259.878906 164.710938 251.070312 170.003906 242.5 175.695312 C 228.898438 184.734375 216.121094 194.820312 204.167969 205.949219 C 192.210938 217.078125 181.242188 229.101562 171.253906 242.027344 C 177.652344 232.648438 184.523438 223.632812 191.867188 214.980469 Z M 429.738281 709.609375 C 419.015625 712.773438 408.15625 715.382812 397.164062 717.441406 C 386.171875 719.5 375.105469 721 363.964844 721.933594 C 352.820312 722.867188 341.660156 723.234375 330.476562 723.03125 C 319.296875 722.832031 308.15625 722.066406 297.054688 720.734375 C 253.847656 715.4375 211.164062 700.835938 176.148438 674.535156 C 167.371094 667.957031 159.203125 660.695312 151.652344 652.742188 C 144.101562 644.789062 137.269531 636.257812 131.15625 627.152344 C 114.390625 602.089844 103.675781 573.375 96.449219 544.246094 C 90.683594 520.835938 87.132812 497.097656 85.796875 473.027344 C 84.460938 448.960938 85.363281 424.972656 88.507812 401.074219 C 89.738281 391.695312 91.316406 382.378906 93.242188 373.121094 C 102.980469 357.089844 113.582031 341.65625 125.054688 326.816406 C 122.277344 335.90625 119.902344 345.121094 117.9375 354.457031 C 115.308594 366.570312 113.445312 378.796875 112.351562 391.140625 C 111.253906 403.488281 110.933594 415.851562 111.386719 428.238281 C 111.84375 440.621094 113.070312 452.929688 115.066406 465.160156 C 117.0625 477.394531 119.816406 489.453125 123.328125 501.339844 C 126.753906 512.472656 130.917969 523.324219 135.820312 533.890625 C 140.71875 544.457031 146.316406 554.644531 152.601562 564.449219 C 158.890625 574.253906 165.8125 583.589844 173.371094 592.453125 C 180.929688 601.320312 189.054688 609.632812 197.742188 617.390625 C 202.101562 621.257812 206.574219 624.988281 211.15625 628.59375 C 215.738281 632.195312 220.421875 635.65625 225.207031 638.984375 C 229.992188 642.308594 234.875 645.488281 239.847656 648.527344 C 244.820312 651.5625 249.882812 654.453125 255.027344 657.191406 C 260.171875 659.929688 265.390625 662.511719 270.6875 664.941406 C 275.984375 667.375 281.347656 669.644531 286.78125 671.757812 C 292.210938 673.871094 297.699219 675.824219 303.246094 677.613281 C 308.792969 679.402344 314.386719 681.027344 320.03125 682.484375 C 325.671875 683.945312 331.355469 685.234375 337.074219 686.359375 C 342.792969 687.480469 348.539062 688.4375 354.3125 689.21875 C 360.089844 690.003906 365.882812 690.617188 371.691406 691.058594 C 377.503906 691.503906 383.324219 691.773438 389.148438 691.871094 C 394.976562 691.96875 400.800781 691.894531 406.625 691.652344 C 412.449219 691.40625 418.257812 690.988281 424.054688 690.398438 C 429.855469 689.8125 435.628906 689.050781 441.382812 688.121094 C 447.136719 687.191406 452.859375 686.09375 458.546875 684.828125 C 474.730469 681.121094 490.546875 676.222656 505.988281 670.125 C 521.433594 664.03125 536.332031 656.808594 550.6875 648.460938 C 532.519531 662.191406 513.277344 674.191406 492.957031 684.464844 C 472.636719 694.738281 451.5625 703.121094 429.738281 709.609375 Z M 717.589844 361.191406 C 721.535156 412.082031 706.492188 462.835938 682.207031 507.175781 C 673.332031 523.324219 663.269531 538.695312 652.015625 553.285156 C 640.765625 567.878906 628.457031 581.515625 615.089844 594.203125 C 630.320312 576.246094 643.585938 556.933594 654.878906 536.273438 C 660.582031 525.929688 665.671875 515.289062 670.140625 504.351562 C 674.609375 493.417969 678.433594 482.261719 681.609375 470.882812 C 684.785156 459.503906 687.292969 447.976562 689.132812 436.308594 C 690.972656 424.636719 692.132812 412.902344 692.613281 401.097656 C 693.039062 388.59375 692.710938 376.109375 691.632812 363.644531 C 692.203125 359.640625 692.71875 355.636719 693.121094 351.613281 C 694.75 336.265625 694.914062 320.902344 693.621094 305.523438 C 692.328125 290.140625 689.597656 275.019531 685.429688 260.160156 C 689.957031 267.84375 694.039062 275.757812 697.679688 283.902344 C 701.320312 292.046875 704.492188 300.367188 707.195312 308.867188 C 709.902344 317.363281 712.125 325.988281 713.863281 334.734375 C 715.601562 343.484375 716.84375 352.300781 717.59375 361.1875 Z M 717.589844 361.191406 " fill-opacity="1" fill-rule="nonzero"/></g></g></g></svg>